<svg xmlns="http://www.w3.org/2000/svg" viewBox="0 0 750.8 422.34"><defs><style>.cls-1,.cls-12,.cls-9{fill:#1d3557;}.cls-1,.cls-14,.cls-15,.cls-16,.cls-17,.cls-18,.cls-2,.cls-21,.cls-4,.cls-5,.cls-7{stroke:#263238;}.cls-1,.cls-14,.cls-15,.cls-16,.cls-17,.cls-18,.cls-19,.cls-2,.cls-20,.cls-21,.cls-3,.cls-4,.cls-5,.cls-8,.cls-9{stroke-miterlimit:10;}.cls-13,.cls-2,.cls-3{fill:#fff;}.cls-3,.cls-6,.cls-8,.cls-9{stroke:#1d3557;}.cls-19,.cls-20,.cls-4,.cls-6,.cls-7,.cls-8{fill:none;}.cls-5{fill:#d4d4d4;}.cls-6,.cls-7{stroke-linecap:round;stroke-linejoin:round;}.cls-10,.cls-14{fill:#263238;}.cls-11,.cls-18{fill:#1c9ce1;}.cls-15{fill:#92e3a9;}.cls-16{fill:#def7e5;}.cls-17{fill:#ffbf9d;}.cls-19{stroke:#000;}.cls-20{stroke:#fff;}.cls-21{fill:#919191;}.cls-22{fill:#5b9add;}</style></defs><g id="Line"><rect class="cls-1" x="584.43" y="115.83" width="156.22" height="206.42"/><rect class="cls-1" x="591.04" y="124.57" width="142.99" height="188.94"/><rect class="cls-2" x="595.42" y="130.36" width="134.23" height="177.37"/><path class="cls-3" d="M633,289.13c-3.37,9.59-6.6,19.28-10.35,28.46C612.52,342.34,600,346.47,594.49,347a10.77,10.77,0,0,1-2.73,0" transform="translate(3.66 -39.29)"/><path class="cls-3" d="M705.15,211.94c-9.85,4.63-20.88,9.54-32.24,16.25-13.66,8.07-22.52,20.42-29.34,34.54" transform="translate(3.66 -39.29)"/><path class="cls-3" d="M726,200.67a111.67,111.67,0,0,1-13.37,7.67" transform="translate(3.66 -39.29)"/><path class="cls-3" d="M625.57,169.64c-1.13,10.8-.12,21.37,6.15,27.25,16.35,15.33,29.68,10.86,61.17-14.68a131.52,131.52,0,0,1,18.73-12.57Z" transform="translate(3.66 -39.29)"/><path class="cls-3" d="M591.76,219.9c8.17,4.49,15.94,11.66,17.56,23,1.81,12.78-7.12,22.68-17.56,29.78Z" transform="translate(3.66 -39.29)"/><path class="cls-3" d="M726,249.63c-18.65,4.47-47.6,15.1-52.46,38.59-4.4,21.21,12,44,25.63,58.8H726Z" transform="translate(3.66 -39.29)"/><ellipse class="cls-3" cx="630.54" cy="185.71" rx="15.75" ry="16.6"/><ellipse class="cls-3" cx="661.13" cy="249.25" rx="6.96" ry="7.34"/><path class="cls-3" d="M708,276.72a5.46,5.46,0,1,1-5.45-5.75A5.6,5.6,0,0,1,708,276.72Z" transform="translate(3.66 -39.29)"/><ellipse class="cls-2" cx="610.86" cy="262.02" rx="3.94" ry="4.15"/><path class="cls-3" d="M673.51,180.93a3.64,3.64,0,1,1-3.63-3.83A3.73,3.73,0,0,1,673.51,180.93Z" transform="translate(3.66 -39.29)"/><line class="cls-4" x1="584.43" y1="115.83" x2="595.42" y2="130.36"/><line class="cls-4" x1="740.64" y1="115.83" x2="729.65" y2="130.36"/><line class="cls-4" x1="729.65" y1="307.73" x2="740.64" y2="322.26"/><line class="cls-4" x1="584.43" y1="322.26" x2="595.42" y2="307.73"/><polygon class="cls-5" points="610.97 421.84 632.36 331.28 616.82 330.74 596.41 421.84 610.97 421.84"/><polygon class="cls-1" points="725.11 421.84 704.7 330.74 689.16 331.28 710.56 421.84 725.11 421.84"/><rect class="cls-1" x="571.63" y="322.14" width="174.43" height="11.84"/><rect class="cls-1" x="651.65" y="90.07" width="20.9" height="25.72"/><rect class="cls-6" x="79.53" y="97.19" width="65.98" height="84.83"/><rect class="cls-6" x="83.79" y="102.67" width="57.46" height="73.87"/><rect class="cls-6" x="103.25" y="127.68" width="18.55" height="23.85"/><rect class="cls-6" x="163.93" y="160.6" width="65.98" height="84.83"/><rect class="cls-6" x="168.19" y="166.08" width="57.46" height="73.87"/><rect class="cls-6" x="187.64" y="191.09" width="18.55" height="23.85"/><rect class="cls-6" x="79.53" y="195.37" width="65.98" height="49.55"/><rect class="cls-6" x="83.79" y="198.57" width="57.46" height="43.15"/><rect class="cls-7" x="103.25" y="213.18" width="18.55" height="13.93"/><line class="cls-8" x1="579.22" y1="33.53" x2="579.22"/><rect class="cls-9" x="570.84" y="27.94" width="16.76" height="7.98"/><circle class="cls-3" cx="575.16" cy="103.95" r="11.97" transform="translate(-4.29 104.61) rotate(-14.16)"/><path class="cls-3" d="M626.14,107.94c-5.89-20.21-26.3-35.12-50.58-35.12S530.86,87.73,525,107.94Z" transform="translate(3.66 -39.29)"/><line class="cls-4" x1="124.97" y1="33.53" x2="124.97"/><rect class="cls-1" x="116.59" y="27.94" width="16.76" height="7.98"/><circle class="cls-3" cx="120.91" cy="103.95" r="11.97" transform="matrix(0.82, -0.57, 0.57, 0.82, -34.07, 48.66)"/><path class="cls-3" d="M171.89,107.94c-5.88-20.21-26.3-35.12-50.58-35.12s-44.7,14.91-50.58,35.12Z" transform="translate(3.66 -39.29)"/><path class="cls-10" d="M487,447.63c0,.81.1,1.62.15,2.44.12,1.62.22,3.24.37,4.86.19,2,.46,4,.74,6h.65c0-.4,0-.8,0-1.2-.05-1.61-.19-3.22-.17-4.84s0-3.23-.05-4.85l0-2.41,0-2.42,0-4.84.13-4.83.05-2.42c0-.81.09-1.61.13-2.42l.3-4.83A171.92,171.92,0,0,1,492,406.68,111.51,111.51,0,0,1,497.25,388h0a.07.07,0,0,0,0-.1.08.08,0,0,0-.11,0,112.26,112.26,0,0,0-5.92,18.53,173.29,173.29,0,0,0-3.26,19.22l-.46,4.86c-.07.81-.16,1.62-.22,2.43l-.13,2.43c-.07,1.63-.17,3.25-.22,4.88l.05,4.88Z" transform="translate(3.66 -39.29)"/><path class="cls-10" d="M492.26,460.9c.33-3.31.56-6.62.79-9.93.3-4.22.34-8.46.62-12.68a111,111,0,0,1,1.51-12.58,114.19,114.19,0,0,1,2.76-12.39.09.09,0,0,0-.05-.11.1.1,0,0,0-.11.06,112.41,112.41,0,0,0-5.47,24.9c-.43,4.23-.91,8.47-1,12.73-.06,3.33,0,6.67.22,10Z" transform="translate(3.66 -39.29)"/><path class="cls-10" d="M495.65,460.9l.61-7a107,107,0,0,1,1.56-12.15c.11-.5.25-1,.38-1.47a13.69,13.69,0,0,1,.43-1.46l.5-1.42.65-1.35a36.72,36.72,0,0,1,3.35-5.1,42.62,42.62,0,0,1,8.81-8.57h0a.08.08,0,0,0-.09-.14,43,43,0,0,0-9.38,8.17,37.85,37.85,0,0,0-3.66,5.1l-.76,1.42-.59,1.48a13.24,13.24,0,0,0-.51,1.5c-.15.5-.32,1-.46,1.51a60.48,60.48,0,0,0-1.94,12.36c-.09,2.4-.09,4.79,0,7.17Z" transform="translate(3.66 -39.29)"/><path class="cls-10" d="M497.49,460.9h.83c.08-.48.16-1,.22-1.44.17-1.09.34-2.16.47-3.24s.3-2.15.39-3.23.22-2.16.46-3.22a28.67,28.67,0,0,1,1.83-6.22,13.72,13.72,0,0,1,3.58-5.35h0a.09.09,0,0,0,0-.11.08.08,0,0,0-.12,0,13.57,13.57,0,0,0-4.26,5.12,29.66,29.66,0,0,0-2.39,6.28c-.17.54-.3,1.08-.42,1.63l-.39,1.64a28.57,28.57,0,0,0-.41,3.33c0,1.12-.05,2.23,0,3.35C497.38,459.91,497.43,460.41,497.49,460.9Z" transform="translate(3.66 -39.29)"/><path class="cls-10" d="M482,434.29c.66,5.43,1.19,10.88,1.87,16.3l1.26,10.31h1c0-.75,0-1.51-.05-2.27-.05-2.75-.29-5.48-.49-8.22-.47-5.48-1.37-10.9-2.22-16.31s-1.8-10.82-2.79-16.21-2.1-10.76-3.26-16.11a.09.09,0,0,0-.17,0c.94,5.4,1.79,10.81,2.59,16.22S481.26,428.86,482,434.29Z" transform="translate(3.66 -39.29)"/><path class="cls-10" d="M472,419.4c.48,1,1,1.93,1.39,2.94l.64,1.49.57,1.52a88.34,88.34,0,0,1,3.65,12.45c.5,2.11.83,4.25,1.24,6.38l.51,3.2c.19,1.07.41,2.13.56,3.2.35,2.14.74,4.28,1.11,6.42.2,1.3.44,2.6.68,3.9H483c0-1.34-.06-2.69-.13-4-.13-2.18-.39-4.35-.62-6.53s-.69-4.32-1.1-6.47l-.77-3.2c-.25-1.06-.49-2.13-.8-3.18A89.72,89.72,0,0,0,475.37,425l-.65-1.51-.73-1.47c-.47-1-1-1.94-1.56-2.89a24,24,0,0,0-3.95-5.24.08.08,0,0,0-.12.12h0A23.72,23.72,0,0,1,472,419.4Z" transform="translate(3.66 -39.29)"/><path class="cls-10" d="M476.41,451c.85,2.89,1.46,5.82,2.23,8.72.11.38.21.77.31,1.15h1.62c-.08-.51-.16-1-.26-1.53a56.88,56.88,0,0,0-2.61-8.76c-1-2.87-2.18-5.69-3.46-8.44a75.29,75.29,0,0,0-4.36-8,.1.1,0,0,0-.12,0,.09.09,0,0,0,0,.12,73.39,73.39,0,0,1,3.72,8.24C474.56,445.31,475.57,448.15,476.41,451Z" transform="translate(3.66 -39.29)"/><path class="cls-10" d="M466.79,448.1a12.63,12.63,0,0,1,4.2,3.26,20,20,0,0,1,2.92,4.43c.83,1.57,1.26,3.31,2,4.93a1.34,1.34,0,0,0,.07.18h1.71c-.05-.24-.1-.48-.16-.73a20,20,0,0,0-2.41-5.05,21.12,21.12,0,0,0-3.51-4.36,16.48,16.48,0,0,0-2.23-1.68,9,9,0,0,0-2.53-1.14.1.1,0,0,0-.1,0,.09.09,0,0,0,0,.12Z" transform="translate(3.66 -39.29)"/><path class="cls-11" d="M477.85,409.61a15.57,15.57,0,0,1-11-11.73c-2.07-9.66,4.6-5.52-1.38-20.69s-4.6-18.63-2.53-23,3.22-3,5.06,2.76,8.51,14.72,11,31.51S477.85,409.61,477.85,409.61Z" transform="translate(3.66 -39.29)"/><path class="cls-11" d="M495.56,393.28s-6-2.07-6.21-13.33,4.37-9,5.06-23S496,333,498.55,332.8s9.2,6.9,11.5,22.54-3,26-7.59,30.59S495.56,393.28,495.56,393.28Z" transform="translate(3.66 -39.29)"/><path class="cls-11" d="M474.64,423.18s-1.38-8.28-4.14-12.19-8.74-7.36-12.65-14.95-8.28-11.26-8.05-.46,5.06,16.33,11,20S474.64,423.18,474.64,423.18Z" transform="translate(3.66 -39.29)"/><path class="cls-11" d="M472.11,437.44s-5.52-10.58-13.57-18.4-14.49-11.73-12.19-7.82,5.06,3.68,9,10.58,2.76,12,8.28,15.87S472.11,437.44,472.11,437.44Z" transform="translate(3.66 -39.29)"/><path class="cls-11" d="M471.42,451c-.23-.69-.46-5.75-8.28-9.89s-15.18-2.53-14.26-.46,5.75,5.52,10.58,7.59S471.42,451,471.42,451Z" transform="translate(3.66 -39.29)"/><path class="cls-11" d="M495.1,423.64s-3.45-4.37-1.61-13.57,6-6.9,10.58-11.73,3.68-5.52,8.28-10.57,8.74-7.82,10.58-5.75-.92,8.5-3.68,12.18-7.13,5.52-9.2,10.12-1.15,12-6.44,15.41S495.1,423.64,495.1,423.64Z" transform="translate(3.66 -39.29)"/><path class="cls-11" d="M506.6,426.17s8.28-9.43,14.26-16.33,8.28-12.19,8.51-7.59,2.07,8.28-2.76,14.26S506.6,426.17,506.6,426.17Z" transform="translate(3.66 -39.29)"/><path class="cls-11" d="M502.23,441.35s-.23-3.68,12.88-12.19,18.63-10.12,17.25-6.67-7.13,6.9-13.34,13.11S502.23,441.35,502.23,441.35Z" transform="translate(3.66 -39.29)"/><path class="cls-7" d="M478.4,408.63s-3.07-16.5-6.29-28.22-5.29-18.86-5.29-18.86" transform="translate(3.66 -39.29)"/><path class="cls-7" d="M495,393.46s5.59-17.88,7.43-28.69-.23-18.86-1.15-23.69" transform="translate(3.66 -39.29)"/><path class="cls-7" d="M473.91,422.84a86.31,86.31,0,0,0-8.47-12.08c-5.06-6-9-9.2-11.27-14.95" transform="translate(3.66 -39.29)"/><path class="cls-7" d="M495.1,423.64s1.84-11,6.21-16.79,13.11-14.72,16.56-20.47" transform="translate(3.66 -39.29)"/><path class="cls-7" d="M470.88,450.76s-7.74-5-13.26-7.8" transform="translate(3.66 -39.29)"/><path class="cls-12" d="M511.38,212c0-17.15-19-31.06-42.38-31.06S426.62,194.87,426.62,212s19,31,42.38,31a55.83,55.83,0,0,0,16.32-2.39l16.56,10.43L496,235.93C505.41,230.23,511.38,221.64,511.38,212Z" transform="translate(3.66 -39.29)"/><path class="cls-13" d="M458.14,211.7a3.71,3.71,0,1,0-3.71,3.71A3.71,3.71,0,0,0,458.14,211.7Z" transform="translate(3.66 -39.29)"/><path class="cls-13" d="M473.07,211.7a3.71,3.71,0,1,0-3.71,3.71A3.71,3.71,0,0,0,473.07,211.7Z" transform="translate(3.66 -39.29)"/><path class="cls-13" d="M488,211.7a3.71,3.71,0,1,0-3.71,3.71A3.71,3.71,0,0,0,488,211.7Z" transform="translate(3.66 -39.29)"/><path class="cls-14" d="M76.67,406H45.1a4.94,4.94,0,0,0-4.85,5.86l9.26,49H91.14L81.53,410A4.94,4.94,0,0,0,76.67,406Z" transform="translate(3.66 -39.29)"/><polygon class="cls-2" points="116.86 381.09 130.1 421.5 122.68 421.5 114.44 390.44 116.86 381.09"/><polygon class="cls-15" points="116.86 381.09 114.44 390.44 118.24 404.76 118.7 404.71 124 402.87 116.86 381.09"/><path class="cls-16" d="M73.56,373.05s-12.24,2.06-15.77,4.12-19.65,16.55-19.65,16.55-11.39,11.29-13,14.95,6.25,10.7,9.64,11.62,17-4.23,17-4.23L59.49,436,55.22,460.9h66.84l-8.56-33.4s1.19-9.61.87-12.35-4.24-15.1-4.44-15.79-1.45-14.49-4.63-19.3S83,371,83,371Z" transform="translate(3.66 -39.29)"/><line class="cls-4" x1="55.53" y1="376.78" x2="64.03" y2="373.81"/><line class="cls-4" x1="105.69" y1="386.81" x2="87.13" y2="403.13"/><line class="cls-4" x1="88" y1="397.05" x2="81" y2="403.96"/><path class="cls-2" d="M32.17,333.21a50.12,50.12,0,0,1,2-7.32c1-2.51,1.25-6.4,2.32-5a8.61,8.61,0,0,1,1.3,5.72,38.26,38.26,0,0,1-1,5.72Z" transform="translate(3.66 -39.29)"/><polygon class="cls-2" points="42.97 308.8 40.42 308.8 42.41 270.68 44.95 270.68 42.97 308.8"/><ellipse class="cls-16" cx="40.48" cy="286.12" rx="26.26" ry="17.84" transform="translate(-244.55 259.45) rotate(-84.45)"/><path class="cls-10" d="M41.17,300.51a5.9,5.9,0,0,1-3.73-1.4,6.75,6.75,0,0,1-2-3.32,14.09,14.09,0,0,1-.43-4.53l.5-9.11a18.23,18.23,0,0,1,.87-4.78A7,7,0,0,1,38.65,274a5.7,5.7,0,0,1,4.06-1.08,7.51,7.51,0,0,1,3.51,1,5.31,5.31,0,0,1,2.11,2.36,7.73,7.73,0,0,1,.62,3.62,1.28,1.28,0,0,0,0,.18,1.61,1.61,0,0,1,0,.22l-3.6-.2a5.8,5.8,0,0,0-.47-3,2.61,2.61,0,0,0-2.34-1.17,2.47,2.47,0,0,0-1.71.53,3.73,3.73,0,0,0-1.15,1.83,12.79,12.79,0,0,0-.54,3.25l-.23,4.1a3.9,3.9,0,0,1,1.6-1.26,5.17,5.17,0,0,1,2.45-.39,5.66,5.66,0,0,1,3.45,1.17,5.2,5.2,0,0,1,1.65,2.82,14.16,14.16,0,0,1,.3,4.15,14,14,0,0,1-.91,4.4,6.76,6.76,0,0,1-2.31,3.07A6.11,6.11,0,0,1,41.17,300.51Zm.17-3a2.53,2.53,0,0,0,1.91-.58,4,4,0,0,0,1-1.77,10.27,10.27,0,0,0,.42-2.45,27.15,27.15,0,0,0,0-3,4.2,4.2,0,0,0-.67-2.23,2.59,2.59,0,0,0-2.12-.94,3.14,3.14,0,0,0-1.35.19,3.84,3.84,0,0,0-1.82,1.47l-.23,4a11.1,11.1,0,0,0,.14,2.55,4,4,0,0,0,.85,1.91A2.49,2.49,0,0,0,41.34,297.54Z" transform="translate(3.66 -39.29)"/><path class="cls-17" d="M39.8,353.57s5.46,53.31,4.64,55.82-7.19,11.95-11.35,12.15c-5.55.28-8.33-7.57-9.33-10.31s6.42-57.43,6.42-57.43l.33-15.1s1.14-4.34,1.66-5.49,8.38-7.32,9.11-8,2.95.45,3.32,2.06-1.83,4.34-1.83,4.34,2.21,10.3,1.86,12.58S39.8,353.57,39.8,353.57Z" transform="translate(3.66 -39.29)"/><path class="cls-16" d="M42.7,383.54l-16.56,1.61C24.6,397.9,23.3,410,23.76,411.23c1,2.74,3.78,10.59,9.33,10.31,4.16-.2,10.53-9.63,11.35-12.15C44.82,408.23,43.85,396.16,42.7,383.54Z" transform="translate(3.66 -39.29)"/><path class="cls-17" d="M101.68,320.67s3.77,6.63,3.79,10.75-.55,6.17-.41,7.78,4.71,6.17,4.88,7.32-4.11,4.34-4.11,4.34-3.49,9.84-4.79,12.81-5.85,2.52-9.93,1.83c0,0,.63,14.19,1,16.71s.4,9.83.4,9.83a20.18,20.18,0,0,1-11.55-6.63c-5.41-6-8.61-10.3-8.61-10.3s.54-10.52.24-13.49-6.5-15.79-10-19,1.93-15.1,12.63-22.88S101.68,320.67,101.68,320.67Z" transform="translate(3.66 -39.29)"/><polygon class="cls-14" points="94.77 326.22 88.28 325.01 94.75 334.9 94.77 326.22"/><path class="cls-14" d="M105.59,320.21s-1.92,1.83-5.3,5.26-9.58,8.24-10.46,7.55.42-3.66.42-3.66a42.33,42.33,0,0,1-5.07,5c-2.14,1.6-6.34,3.2-6,4.58s2.17,2.28,1,3.2a6.5,6.5,0,0,1-4.64,1.14c-1.59-.22-2.74,4.35-1.87,5.27s2.47.91,1.81,4.8,0,8.69-3,8.24A12.19,12.19,0,0,1,64.2,355a45.14,45.14,0,0,1-2-5.72s-5.88,3.2-8.63-5.49,1.79-21.27,10.14-27.91,19.18-12.35,35.38-7.09S105.59,320.21,105.59,320.21Z" transform="translate(3.66 -39.29)"/><path class="cls-10" d="M102,341c-.07,1.39-.69,2.51-1.39,2.51s-1.2-1.12-1.12-2.51.69-2.52,1.38-2.52S102.06,339.64,102,341Z" transform="translate(3.66 -39.29)"/><path class="cls-4" d="M101.58,353.38s-3.51,1.37-5.59-2.52" transform="translate(3.66 -39.29)"/><path class="cls-4" d="M98.31,337.14s2-3,5.1-1.38" transform="translate(3.66 -39.29)"/><path class="cls-17" d="M77.07,345.14s-3.07-6.86-6.16-4.8-.47,9.15,2,10.75,6.14.69,6.14.69" transform="translate(3.66 -39.29)"/><path class="cls-14" d="M158.07,406H126.51a5,5,0,0,0-4.86,5.86l9.26,49h41.63L162.93,410A4.94,4.94,0,0,0,158.07,406Z" transform="translate(3.66 -39.29)"/><path class="cls-18" d="M159.19,368.44s-29.65,18.48-31.95,25.83,1.57,66.63,1.57,66.63h85.7S197.83,397.08,193.64,390s-8.37-12.56-13.76-15.82S159.19,368.44,159.19,368.44Z" transform="translate(3.66 -39.29)"/><path class="cls-4" d="M156.73,389c4.29,10.37,6.62,15.81,6.62,15.81l7.8-2.29-3.72,6s2.38,2.6,9,6.58,15.93,11.78,15.93,11.78l1.34-16.45" transform="translate(3.66 -39.29)"/><path class="cls-4" d="M152.32,378.62s.1,0,3.45,8" transform="translate(3.66 -39.29)"/><line class="cls-4" x1="201.14" y1="402.41" x2="204.64" y2="411.96"/><line class="cls-4" x1="197.05" y1="391.21" x2="199.18" y2="397.05"/><path class="cls-4" d="M152.73,413.2c.2,1.44.32,2.38.32,2.38l4.73,41.32" transform="translate(3.66 -39.29)"/><path class="cls-4" d="M138.56,388.3s11.07,8.23,12.24,13.55c.61,2.79,1.2,6.42,1.62,9.25" transform="translate(3.66 -39.29)"/><path class="cls-2" d="M159.19,368.44s-1.29,1.36-3.31,3.57c2,3,7.51,10.62,11.42,16.34,4.7,6.86,22.8,33.17,22.8,33.17s.65-28.7-1.9-38.19c-.15-.58-.33-1.15-.52-1.7-2.48-2.91-4.87-5.64-7.8-7.42C174.49,370.94,159.19,368.44,159.19,368.44Z" transform="translate(3.66 -39.29)"/><path class="cls-14" d="M189.87,409l-2.11-2.3,1.86-9L180.81,394,178,403.18l6.41,3.86-2,2.64a137.85,137.85,0,0,0,7.73,11.84S190,418.26,189.87,409Z" transform="translate(3.66 -39.29)"/><path class="cls-2" d="M189.62,397.66c-.24-2.72-.92-12.47-1.42-14.33-.15-.58-.33-1.15-.52-1.7-2.48-2.91-4.87-5.64-7.8-7.42-5.39-3.27-20.69-5.77-20.69-5.77a10.67,10.67,0,0,0-4.51,2.88c2,3,8.71,11.31,12.62,17,1.24,1.81,8.2,11.14,10.65,14.41l2.86-8.74Z" transform="translate(3.66 -39.29)"/><path class="cls-17" d="M164,319.32s-12.24,9.4-15.15,18.74,4.08,20.84,6.84,23.28a12.51,12.51,0,0,1,3.56,4.89l-1,2.95L180.81,394l4.28-19.61s7.78.94,9.87-.8,2.86-5.41,3.2-6.64,2.36-8.61,2.36-8.61,3.17-3,3.52-4.44-4.11-10.52-4.11-10.52,3.29-4.69,2.69-6.4-4.57-11-6.84-13.46a19.87,19.87,0,0,0-3.92-3.41,9.28,9.28,0,0,0-5.57-4.14C182.21,314.79,168.93,315.12,164,319.32Z" transform="translate(3.66 -39.29)"/><path class="cls-14" d="M186.29,316c-4.08-1.2-17.36-.87-22.33,3.33,0,0-12.24,9.4-15.15,18.74s4.08,20.84,6.84,23.28a12.51,12.51,0,0,1,3.56,4.89c1.4,1,8-6.71,8-6.71a26.81,26.81,0,0,1-4.22-3.67c-2.63-2.83-.38-8.49,2.64-9.49s2.65,3.12,3.74,4.83,4.38.47,6.14,0,.47-2.94.41-5.4,3-6.89,4.22-10.58-3.76-5.37-8.77-7.31-.87-1.46,5.51-4.69,14.94-3,14.94-3A9.28,9.28,0,0,0,186.29,316Z" transform="translate(3.66 -39.29)"/><path class="cls-4" d="M201.28,341.67s-9.53-.43-10.85.8-.5,6.63,1.58,8.34,4.08,1.2,6.12.21S201.28,341.67,201.28,341.67Z" transform="translate(3.66 -39.29)"/><path class="cls-4" d="M201.28,341.67s3.08-.47,3.93.08-1.36,6.28-2.28,6.62-2-3.91-2-3.91Z" transform="translate(3.66 -39.29)"/><line class="cls-4" x1="194.09" y1="303.19" x2="171.49" y2="308.35"/><path class="cls-4" d="M198.9,340.05a5.25,5.25,0,0,0-3.81-.62,12.56,12.56,0,0,0-4.27,1.31" transform="translate(3.66 -39.29)"/><path class="cls-4" d="M196.08,360.47a6.35,6.35,0,0,1-5.1-2.54" transform="translate(3.66 -39.29)"/><path class="cls-10" d="M196.18,346.33c-.08,1.07-.68,1.93-1.35,1.94s-1.14-.86-1.06-1.92.69-1.93,1.35-1.94S196.26,345.27,196.18,346.33Z" transform="translate(3.66 -39.29)"/><polygon class="cls-14" points="188.75 335.13 181.99 333.18 186.34 345.87 188.75 335.13"/><path class="cls-14" d="M243.85,406H212.29a4.94,4.94,0,0,0-4.86,5.86l9.26,49h41.63L248.71,410A4.94,4.94,0,0,0,243.85,406Z" transform="translate(3.66 -39.29)"/><path class="cls-17" d="M313.82,366.73s0-14.41,1.1-17.37,9.5-11.22,10.85-12.05,4.18-.83,4.55,1.06,1.13,19.62.21,21.27a16,16,0,0,1-3.79,4.38c-.61.23-1,4.84-1,4.84Z" transform="translate(3.66 -39.29)"/><polygon class="cls-2" points="331.03 317.57 328.49 317.57 330.65 279.46 333.19 279.46 331.03 317.57"/><ellipse class="cls-16" cx="328.83" cy="294.9" rx="26.27" ry="17.83" transform="translate(4.68 551.63) rotate(-83.97)"/><path class="cls-10" d="M328.47,308a7.41,7.41,0,0,1-3.6-1.15,5.27,5.27,0,0,1-2-2.58,8.56,8.56,0,0,1-.41-3.76l.07-.9,3.53.3c0,.09,0,.18,0,.28l0,.32a10.26,10.26,0,0,0,.1,2.19,3,3,0,0,0,.77,1.61,3.47,3.47,0,0,0,3.85.28,3.22,3.22,0,0,0,1.05-1.67,12.75,12.75,0,0,0,.45-2.58,6.87,6.87,0,0,0-.48-3.55,3.19,3.19,0,0,0-2.62-1.72l-.25,0-.25,0,.31-3.57.23,0,.24,0a3.69,3.69,0,0,0,2.81-.76,4.62,4.62,0,0,0,1.1-3,6,6,0,0,0-.36-3,2.57,2.57,0,0,0-2.36-1.31,2.43,2.43,0,0,0-2.53,1,7.73,7.73,0,0,0-.94,3.05l0,.29,0,.28-3.53-.3.08-.9a8.72,8.72,0,0,1,1.05-3.64,5.26,5.26,0,0,1,2.42-2.17,8.61,8.61,0,0,1,7.38.63,5.29,5.29,0,0,1,2,2.57,8.58,8.58,0,0,1,.41,3.78,6.5,6.5,0,0,1-1.38,3.8,5.19,5.19,0,0,1-3,1.76,4.73,4.73,0,0,1,2,1.44,6.2,6.2,0,0,1,1.12,2.4,10.27,10.27,0,0,1,.19,3.25,12,12,0,0,1-1,4.13,5.52,5.52,0,0,1-2.37,2.58A6.82,6.82,0,0,1,328.47,308Z" transform="translate(3.66 -39.29)"/><path class="cls-17" d="M314.94,361.65s-1.46-11.81-.71-14.65,5.75-9.69,6.74-12.53,2.71-4,3.47-3,.87,3.43.05,5.44-3.22,6.85-3.22,6.85,3,7.92,2.61,10.16a24.43,24.43,0,0,1-1.84,5.32" transform="translate(3.66 -39.29)"/><path class="cls-17" d="M331.94,332.7s-4.92,3.43-5.2,4.26-.22,3.89.83,4,4.36-1.89,5.76-3.66a4,4,0,0,0,.84-4.25C333.74,332.23,333,332,331.94,332.7Z" transform="translate(3.66 -39.29)"/><path class="cls-17" d="M332.72,351.57s1.48-.77,1.67.86-.31,3.91-1.5,4.58-4.18,1.24-4.73.86-1.47-.95-.36-2S332.72,351.57,332.72,351.57Z" transform="translate(3.66 -39.29)"/><path class="cls-17" d="M333.42,344.05s1.83-.95,2.07,1.06-.39,4.84-1.86,5.67-5.17,1.54-5.85,1.06-1.82-1.18-.45-2.48S333.42,344.05,333.42,344.05Z" transform="translate(3.66 -39.29)"/><path class="cls-17" d="M332.44,338.49s1.83-.94,2.07,1.07-.4,4.84-1.86,5.67-5.17,1.53-5.85,1.06-1.83-1.18-.45-2.48S332.44,338.49,332.44,338.49Z" transform="translate(3.66 -39.29)"/><path class="cls-16" d="M282.11,384.27l21.29,22.82,7.16-37.24,18.09,2.89s-3.38,55.49-4.66,61-2.07,11.05-5,11.29-21-7.21-21-7.21Z" transform="translate(3.66 -39.29)"/><line class="cls-4" x1="306.53" y1="381.3" x2="306.41" y2="384.41"/><line class="cls-4" x1="307.06" y1="367.8" x2="306.62" y2="379.01"/><polygon class="cls-2" points="316.36 330.94 316.87 326.14 331.39 328.54 330.89 333.11 316.36 330.94"/><path class="cls-16" d="M247.07,366.73s-27.62,29.55-29,37.24,6.14,56.93,6.14,56.93h81s-15.67-66.78-20.81-73.51a56.75,56.75,0,0,0-16-14.65C262.78,369.37,247.07,366.73,247.07,366.73Z" transform="translate(3.66 -39.29)"/><path class="cls-4" d="M270.07,414.54c7.25,3.36,17.67,10.33,17.67,10.33L287,408.05" transform="translate(3.66 -39.29)"/><path class="cls-4" d="M240.24,377.06s.8,2.88,6.47,13,8.74,15.38,8.74,15.38l7.62-3.12-3,6.48a37.39,37.39,0,0,0,6.72,4.16" transform="translate(3.66 -39.29)"/><line class="cls-4" x1="299.89" y1="407.66" x2="301.45" y2="411.77"/><line class="cls-4" x1="292.88" y1="389.19" x2="298.41" y2="403.75"/><line class="cls-4" x1="256.03" y1="410.2" x2="257.4" y2="417.53"/><path class="cls-4" d="M228.79,396.76s11.68,1.68,13.54,7,4,13.69,4,13.69l5.38,28.75" transform="translate(3.66 -39.29)"/><path class="cls-2" d="M247.07,366.73s-1.29,1.38-3.32,3.61c2.14,3.05,8.93,12.61,13.63,18,5.63,6.49,26.07,27.39,26.07,27.39s-1.69-25.23-5.49-34.6c-.23-.57-.48-1.13-.74-1.66a52.38,52.38,0,0,0-8.87-6.74C262.78,369.37,247.07,366.73,247.07,366.73Z" transform="translate(3.66 -39.29)"/><path class="cls-14" d="M281.48,397l-4.94-3.37,0-8.89-7.23-3.85L265,389.07l8.11,5.29,2,12.84c4.64,4.8,8.29,8.54,8.29,8.54S282.82,406.42,281.48,397Z" transform="translate(3.66 -39.29)"/><path class="cls-2" d="M280,388.17a43.31,43.31,0,0,0-2-7c-.23-.57-.48-1.13-.74-1.66a52.38,52.38,0,0,0-8.87-6.74c-5.57-3.37-21.28-6-21.28-6s-1.29,1.38-3.32,3.61c2.14,3.05,8.93,12.61,13.63,18,1.48,1.71,4,4.43,6.91,7.51L270.35,384Z" transform="translate(3.66 -39.29)"/><path class="cls-17" d="M290.44,322s2.45,12,1.88,13.46a41.54,41.54,0,0,1-1.9,3.84s7,11.77,5.47,13.7a11,11,0,0,1-4.48,2.88s-3,14.41-5,15.37-9.88.48-9.88.48L270.35,384s-3,1.44-8.68-3.61-14.6-13.69-14.6-13.69l3.8-7.69s-9.9-11.77-10.32-21.38,12.25-25.47,26-26.91S293.43,316,290.44,322Z" transform="translate(3.66 -39.29)"/><path class="cls-14" d="M286.45,371.29c2-1,5-15.37,5-15.37a10.39,10.39,0,0,0-7.44-.24,16.46,16.46,0,0,0-6.52,4.8l-11.63-6.72-1.07-14.9s6.86-6.73,10.08-8.41-2.5-6.72-4.1-8.16,19.71-.25,19.71-.25c3-6-10.08-12.73-23.86-11.29s-26.45,17.3-26,26.91S250.87,359,250.87,359l6.2-3.36a3.87,3.87,0,0,0-2.06-1.92c-1.41-.48-4.38-7.45-3-10.33s6.4-2.65,8.41,0,.55,19.94,2.35,22.1,13.82,6.24,13.82,6.24S284.47,372.26,286.45,371.29Z" transform="translate(3.66 -39.29)"/><path class="cls-10" d="M287.36,342.59c-.07,1.26-.67,2.28-1.33,2.28s-1.15-1-1.07-2.28.66-2.29,1.33-2.29S287.43,341.32,287.36,342.59Z" transform="translate(3.66 -39.29)"/><path class="cls-4" d="M281.32,338.86a6.78,6.78,0,0,1,7.81-2.16" transform="translate(3.66 -39.29)"/><path class="cls-19" d="M287.48,361.68a5.08,5.08,0,0,1-5.66-1.92" transform="translate(3.66 -39.29)"/><path class="cls-14" d="M355.91,406H324.35a4.94,4.94,0,0,0-4.86,5.86l9.26,49h41.63L360.77,410A4.94,4.94,0,0,0,355.91,406Z" transform="translate(3.66 -39.29)"/><path class="cls-18" d="M377.27,386.16s17,32.26,19.44,38.28-.81,18.83-.81,19.63,3.61,16.83,3.61,16.83H336.79l0-46s-1.44-13.74,1-22.55,22.64-2.81,29.05-4S377.27,386.16,377.27,386.16Z" transform="translate(3.66 -39.29)"/><path class="cls-4" d="M347.21,401s13.23,10,12.63,23-.2,36.87-.2,36.87" transform="translate(3.66 -39.29)"/><path class="cls-4" d="M386.29,434.25s-12.83,12-17,13.63" transform="translate(3.66 -39.29)"/><line class="cls-4" x1="385.74" y1="403.99" x2="375.92" y2="409.4"/><path class="cls-17" d="M389.8,326.31s5.6,7.9,6.11,13,.25,8.15,2.29,10.19,4.84,3.82,3.57,5.85a43.51,43.51,0,0,1-4.59,5.35s-3.56,12.23-5.6,14-7.13.25-8.15.25a14.26,14.26,0,0,1-2.29-.25l-4.33,15L359,374.7s-6.11-12-3.82-22.92,20.38-16.81,23.43-20.37,5.61-7.64,6.88-8.15S389.8,326.31,389.8,326.31Z" transform="translate(3.66 -39.29)"/><path class="cls-14" d="M374.26,346.69s.2,5.41-1.6,6.81-6-3-6-3Z" transform="translate(3.66 -39.29)"/><path class="cls-14" d="M392.09,322.49s.76,8.66-3.57,15.28-11.71,8.66-18.08,12.74-7.38,14-4.58,17.57,12.48,11.71,10.95,21.64-4.07,15.79-13.24,10.7-14-11.21-18.08-9.68-7.39,4.33-7.39,7.9-1.27,16.29-1.27,16.29a17.79,17.79,0,0,1-8.91-17.06c1-12,13.49-21.9,15-32.59s-6.11-23.94,2.8-39S379.61,314.34,392.09,322.49Z" transform="translate(3.66 -39.29)"/><path class="cls-10" d="M393.5,348.89c.08,1.38-.4,2.53-1.06,2.57s-1.26-1-1.34-2.43.4-2.53,1.06-2.57S393.42,347.51,393.5,348.89Z" transform="translate(3.66 -39.29)"/><path class="cls-4" d="M389.29,345.69s.6-2.61,4.21-2.41" transform="translate(3.66 -39.29)"/><path class="cls-4" d="M393.5,362.72s-2.2.8-4.81-1.4" transform="translate(3.66 -39.29)"/><path class="cls-14" d="M364.65,363.32l3.6.8-2.2,2.61S363.84,367.13,364.65,363.32Z" transform="translate(3.66 -39.29)"/><path class="cls-17" d="M507.68,325.9s-12.6-8.93-14.83-10.53-10.85-1.11-13.24-.32-5.1,1.28-3,4.63,10.52,11.64,12.28,13.07,6.86,1,7.81,1h2.71l5.43,2.71Z" transform="translate(3.66 -39.29)"/><rect class="cls-1" x="473.58" y="290.85" width="2.65" height="46.95" transform="translate(-90.49 297.56) rotate(-35.76)"/><rect class="cls-1" x="446.95" y="287.54" width="3.94" height="15.12" rx="0.97" transform="translate(-84.15 278.74) rotate(-35.77)"/><path class="cls-1" d="M464.64,275.47h1.87a1.13,1.13,0,0,1,1.13,1.13v12.86a1.13,1.13,0,0,1-1.13,1.13h-1.87a.93.93,0,0,1-.93-.93V276.4a.93.93,0,0,1,.93-.93Z" transform="translate(-73.94 286.25) rotate(-35.76)"/><rect class="cls-1" x="448.91" y="281.5" width="16.79" height="15.12" rx="1.27" transform="translate(-79.04 282.5) rotate(-35.76)"/><rect class="cls-2" x="453.45" y="281.59" width="7.45" height="15.12" transform="translate(-79.12 282.44) rotate(-35.76)"/><path class="cls-17" d="M497.47,318.88s-5.26-4.62-7.5-5.58-11.64-4-13.87-5.42-4.62-3.67-4.31-.8,2.4,6.22,4.63,7.18a21.81,21.81,0,0,0,5.26,1.27s2.87,5.74,5.42,7a12.14,12.14,0,0,0,5.75,1" transform="translate(3.66 -39.29)"/><path class="cls-17" d="M476.42,314.26s-6.86,4.46-6.86,5.26,1,3,2.08,3.19,8.29-4,9.09-4.63-.8-1.91-1.12-3S477.38,313.94,476.42,314.26Z" transform="translate(3.66 -39.29)"/><path class="cls-17" d="M481.34,319.52s-6.75,4-7,4.82a2.64,2.64,0,0,0,1.29,2.49c.65.28,2.32-.37,3.61-1.29s4.17-2.13,4.17-3.43S482.64,319.43,481.34,319.52Z" transform="translate(3.66 -39.29)"/><path class="cls-17" d="M484,323s-6.75,4-7,4.81a2.65,2.65,0,0,0,1.3,2.5c.64.27,2.31-.37,3.61-1.3s4.16-2.13,4.16-3.42S485.32,322.85,484,323Z" transform="translate(3.66 -39.29)"/><path class="cls-17" d="M486.9,326.22s-5.79,3.41-6,4.12a2.29,2.29,0,0,0,1.11,2.15c.56.24,2-.32,3.1-1.11s3.57-1.83,3.57-2.94S488,326.14,486.9,326.22Z" transform="translate(3.66 -39.29)"/><path class="cls-16" d="M557.05,302.54l-4.95,36.29L513.45,326.1l-6.13,17.21S563.65,369,566,367.58s8.25-19.32,8.25-19.32Z" transform="translate(3.66 -39.29)"/><path class="cls-14" d="M588.71,400.63l3,60.27h64.38l7.13-49.47s1.08-12.32-4.1-21.17c0,0-30.47,7.13-46.89,7.13s-23.33-.65-23.33-.65Z" transform="translate(3.66 -39.29)"/><polyline class="cls-20" points="608.15 372.79 612.47 375.6 617.01 421.4"/><path class="cls-16" d="M553.33,288.79s4.82,46.09,7,48.5,24.38,27.87,24.38,27.87l2.15,38.32,9.64,3.75,2.15-4.82,2.14,5.63s4.82,2.14,26,0,37.79-14.47,37.79-14.47-15.28-46.63-18-52.8-13.39-43.41-27.86-55.47-37.36-19.33-39.4-19.83-3.75-.8-3.75-.8Z" transform="translate(3.66 -39.29)"/><path class="cls-4" d="M581.81,269.46,583.35,304s-4.61,1.92-5.18,2.3,6,8.84,6,8.84-3.27,14.4-3.27,23.61a70.57,70.57,0,0,0,1.73,15.94s-15-15.36-18.62-18.63" transform="translate(3.66 -39.29)"/><polygon class="cls-21" points="596.86 353.59 596.86 421.62 530.08 421.62 530.08 340.97 596.86 353.59"/><path class="cls-14" d="M593.2,392.87v8.55c-7.61-1.4-20.75-3.84-23.09-4.42-3.33-.84-3.89-6.11-3.89-6.11l-39.81-7.21v-3.43Z" transform="translate(3.66 -39.29)"/><rect class="cls-21" x="506.1" y="382.65" width="102.79" height="4" transform="translate(82.69 -134.03) rotate(10.45)"/><path class="cls-16" d="M589.28,286.15S580,296.81,583.35,304s29,36.57,29,36.57L595,373.94l11.12,8.83s26.79-29.93,29.07-33.63,6.55-9.12,6-12-24.79-44.75-27.93-48.74" transform="translate(3.66 -39.29)"/><polygon class="cls-2" points="598.64 334.65 595.75 338.48 605.42 346.18 608.22 342.54 598.64 334.65"/><path class="cls-2" d="M579.62,395.13a5.55,5.55,0,0,0,2.27-.09c.94-.31,3.29-3,3.29-3l-2.19-.31Z" transform="translate(3.66 -39.29)"/><path class="cls-17" d="M592.09,377.76s-17.8-1.26-19.9-1.26-3.31,2.08-5.18,4.2c-.93,1.06-4.56,6.82-4.56,6.82s1.9,6.35,3,6.21l1.12-.14a7.76,7.76,0,0,0,3.36,1,11,11,0,0,0,2.24-.14,7.33,7.33,0,0,0,2.66.42h1.69a5.34,5.34,0,0,0,3.08.28c1.4-.42,6.44-8,6.44-8s6.73,2.94,9.81.84a13.83,13.83,0,0,0,4.06-3.79Z" transform="translate(3.66 -39.29)"/><path class="cls-4" d="M566.59,393.59S570,382,571.21,380.14" transform="translate(3.66 -39.29)"/><path class="cls-4" d="M572.19,394.43s3.64-12.33,4.06-13.59" transform="translate(3.66 -39.29)"/><path class="cls-4" d="M576.54,394.85s4.48-11.63,5.32-12.61" transform="translate(3.66 -39.29)"/><polygon class="cls-2" points="517.12 286.82 510.86 284.86 506.4 299.37 511.98 301.76 517.12 286.82"/><path class="cls-2" d="M577.78,343.76a169,169,0,0,1-12.69-12.37,23,23,0,0,1-3.43-4.71c-2.31-5-6.65-35.48-6.65-35.48,3.14-8.39,22.28-26.21,22.28-26.21s-3,31-3.73,45.37a74.22,74.22,0,0,0,.22,9.95A156.6,156.6,0,0,0,577.78,343.76Z" transform="translate(3.66 -39.29)"/><path class="cls-14" d="M577.78,343.76a169,169,0,0,1-12.69-12.37l-1.9-24.49-4.61-5.76.77-8.25,8.83,4.6-1.72,8.84,7.32,14A156.6,156.6,0,0,0,577.78,343.76Z" transform="translate(3.66 -39.29)"/><path class="cls-2" d="M573.89,305c1.06-15.55,3.39-40,3.39-40S558.15,282.81,555,291.2c0,0,.9,6.3,2.1,13.64l.14,0,4.8-6.72Z" transform="translate(3.66 -39.29)"/><path class="cls-17" d="M525.43,240.14s-1,8.28-.4,11.63,1.58,7.1,1.58,10.06-4.73,11.23-3,12.22,7.3,2.37,7.3,2.37,10.25,15,12,14.78,6.7-3.94,6.7-3.94,7.49,5.52,9.07,7.1a9.61,9.61,0,0,0,3.94,2.17L577.28,265l-5.71-4.53s4.53-14.79,4.33-22.28-15-19.13-24.45-19.33-25,7.89-28.78,13.61S522.47,240.14,525.43,240.14Z" transform="translate(3.66 -39.29)"/><path class="cls-14" d="M575.9,238.17c-.19-7.5-15-19.13-24.45-19.33s-25,7.89-28.78,13.61-.2,7.69,2.76,7.69a30.74,30.74,0,0,0,7.49-1.58c2.76-1.18,8.68-4.34,8.68-4.34s-2.57,10.85-1.78,11.83,9.47,2.17,9.47,2.17,1.18,2.57,1.77,3.55,3,1,3.55.2,0-3.55.59-4.73,6.31-2.17,7.89,2.76-.59,8.87-1.58,9.66,1.38.39,4.34,1.18a9.74,9.74,0,0,0,5.72-.39S576.1,245.66,575.9,238.17Z" transform="translate(3.66 -39.29)"/><path class="cls-10" d="M534.57,259.23c.56,1.11.54,2.26,0,2.55s-1.51-.37-2.08-1.49-.54-2.27,0-2.56S534,258.11,534.57,259.23Z" transform="translate(3.66 -39.29)"/><path class="cls-4" d="M529.37,255.71s-1-4.14,5.92-2.76" transform="translate(3.66 -39.29)"/><path class="cls-14" d="M537.06,275.43a7.77,7.77,0,0,0,6.9-5.52s1.18,4.73-.2,7.49S537.06,275.43,537.06,275.43Z" transform="translate(3.66 -39.29)"/><polygon class="cls-14" points="553.34 247.97 560.84 241.67 558.67 251.92 553.34 247.97"/><path class="cls-4" d="M561.51,259.66l-2,1.77s2.17,3.95,2.36,6.11a6.73,6.73,0,0,1-.39,3.36" transform="translate(3.66 -39.29)"/><path class="cls-22" d="M691.69,193.41c0-.17,0-.32,0-.47a.85.85,0,0,1,.84-.76h3.56a.86.86,0,0,1,.83.84v.39Z" transform="translate(3.66 -39.29)"/><path class="cls-22" d="M699.72,188.36l-1.5-3.73,4-1.61,1.51,3.73Z" transform="translate(3.66 -39.29)"/><path class="cls-22" d="M703,188.15l.52,1.07c.85,1.8,2.56,5.79,3.41,7.59a1.16,1.16,0,0,1-.39,1.51,1.18,1.18,0,0,1-1.77-.61c-.24-.69-.47-1.39-.7-2.08-.52-1.53-1.9-5.27-2.41-6.8,0-.05,0-.1,0-.14Z" transform="translate(3.66 -39.29)"/><path class="cls-22" d="M696.7,184.4a.67.67,0,0,1,.78-.14.68.68,0,0,1,.39.39l1.59,3.94a.72.72,0,0,1-1.34.54" transform="translate(3.66 -39.29)"/><path class="cls-22" d="M703.44,181.86a.71.71,0,0,1,.39.39l1.6,4a.71.71,0,0,1-.41.93.73.73,0,0,1-.94-.4c-.54-1.32-1.07-2.64-1.6-4a.66.66,0,0,1,.17-.77A.71.71,0,0,1,703.44,181.86Z" transform="translate(3.66 -39.29)"/><path class="cls-22" d="M708.32,193.77h2.49v1.36s0,0,0,0c-.44.06-.44.06-.44.51v1.65l.31,0H712c.22,0,.29,0,.29-.27a9.17,9.17,0,0,1,.07-1.48,2.15,2.15,0,0,1,1.89-1.83,3.8,3.8,0,0,1,1.61.05,2.11,2.11,0,0,1,1.69,1.84,3.85,3.85,0,0,1,0,1.31,2.11,2.11,0,0,1-1.78,1.72,3.62,3.62,0,0,1-.87.09h-4.26c-.24,0-.33,0-.36.31a1.78,1.78,0,0,1-1.94,1.78,7.2,7.2,0,0,1-1.3-.15.23.23,0,0,1-.15-.17c0-.41,0-.83,0-1.22h.75a.61.61,0,0,0,.68-.7c0-1.5,0-3,0-4.51Zm6.08,3.57H715a.41.41,0,0,0,.47-.4,9.26,9.26,0,0,0,0-1.29.47.47,0,0,0-.56-.4.45.45,0,0,0-.48.46C714.39,196.24,714.4,196.77,714.4,197.34Z" transform="translate(3.66 -39.29)"/><path class="cls-22" d="M686.81,197c0-.42,0-.84,0-1.26a.17.17,0,0,1,.13-.13h2.36v3.9c.48,0,.94,0,1.39,0a.44.44,0,0,0,.41-.48c0-.3,0-.6,0-.9V195.5a3.71,3.71,0,0,1,0-.47,1.34,1.34,0,0,1,1.44-1.32c1.37,0,2.75,0,4.12,0,.14,0,.24,0,.23.2,0,1.6,0,3.2,0,4.81l0,.06h-1.14c-.26,0-.61.07-.76-.07s0-.48,0-.73c0-.85,0-1.69,0-2.54,0-.25-.08-.31-.32-.3s-.56,0-.85,0c-.48,0-.66.18-.66.67,0,1.16,0,2.31,0,3.47a2.92,2.92,0,0,1-.22,1,1.08,1.08,0,0,1-1,.65c-.74,0-1.48,0-2.22,0h-2.32c0-.12,0-.21,0-.31,0-1.07,0-2.15,0-3.22,0-.28-.06-.42-.36-.38C686.92,197,686.88,197,686.81,197Z" transform="translate(3.66 -39.29)"/><path class="cls-22" d="M702.89,198.76h-4.63v-1.41h2.47c0-.61,0-1.18,0-1.75,0-.25-.26-.37-.54-.35s-.46.13-.47.4-.16.37-.43.35-.7,0-1.09,0v-1.27c0-.53,0-.53.49-.73a4.07,4.07,0,0,1,2.26-.24,2.22,2.22,0,0,1,1.94,2.2C702.93,196.88,702.89,197.81,702.89,198.76Z" transform="translate(3.66 -39.29)"/><path class="cls-22" d="M689.93,202.85H688.5c0-.44,0-.85,0-1.27a.22.22,0,0,1,.16-.15,10.09,10.09,0,0,1,1.1,0c.05,0,.15.1.16.16C689.94,202,689.93,202.41,689.93,202.85Z" transform="translate(3.66 -39.29)"/><path class="cls-22" d="M691.92,202.84h-1.44c0-.43,0-.85,0-1.28,0-.05.1-.13.15-.13.38,0,.75,0,1.13,0a.2.2,0,0,1,.14.15C691.92,202,691.92,202.41,691.92,202.84Z" transform="translate(3.66 -39.29)"/><path class="cls-22" d="M710,191.79v1.39h-1.4v-1.39Z" transform="translate(3.66 -39.29)"/><line class="cls-4" y1="421.62" x2="750.8" y2="421.62"/></g></svg>