<svg xmlns="http://www.w3.org/2000/svg" viewBox="0 0 634.11 355.42"><defs><style>.cls-1{fill:#aa6550;}.cls-2{fill:#5b9add;}.cls-3{fill:#fff;}.cls-4{fill:#ffbf9d;}.cls-5{fill:#455a64;}.cls-6{fill:#def7e5;}.cls-7{fill:#263238;}</style></defs><g id="Background_Simple" data-name="Background Simple"><path class="cls-1" d="M1416.5,259.94s3.75-2.51,6.22.83,5,26.59,5,26.59a50.92,50.92,0,0,1,2.41,9.33c.45,4-14.14,25.65-14.14,25.65L1391.4,296.5s-5.08-.28-5.86-3.55-.56-12.26-.56-12.26l9.56-7.74s-5.28-2.41-6.16-5,.53-5.77.53-5.77Z" transform="translate(-823.83 -145.45)"/><path class="cls-2" d="M1433.3,248.79c-4.46,2.4-14.06,6.54-14.79,19.16s2.66,32.2-1.62,38.58-18.59,8.15-23.74-1.88-4.41-36.58-5.58-41.32-5.1-8.14-9-10.15,27.28-22.74,27.28-22.74Z" transform="translate(-823.83 -145.45)"/><path class="cls-1" d="M1387,363.81s-2.47-37.62-2.25-42.95.67-14.77,5.36-22.19a52.84,52.84,0,0,0,6.32-14c.34-.93.28-16.53,2.9-21.79s5.5-4.87,7.8-3.83,4,4.91,3.27,10.18-1,16.44-.8,24.26,16.77,12.15,16.77,12.15-7.89,24.49-8.13,28.11,4.56,31.71,4.56,31.71l-22.59,7.67Z" transform="translate(-823.83 -145.45)"/><circle class="cls-2" cx="1401.11" cy="202.53" r="56.82" transform="translate(-837.65 11.19) rotate(-6.37)"/><path class="cls-1" d="M1385.74,445.88c.94-36.25.82-71.2-.14-104.74l32.63-7.41a450.26,450.26,0,0,1,18.27,144.66q-.43,11-1.39,21.61-12.4-.21-25.54,0-13.39.22-26,.87Q1385,474,1385.74,445.88Z" transform="translate(-823.83 -145.45)"/><path class="cls-3" d="M1417.89,200.67a12.94,12.94,0,0,1,4.67,10.46,14.54,14.54,0,0,1-2.12,7.71,14.78,14.78,0,0,1-6.46,5.56,24.54,24.54,0,0,1-10.69,2.09,36.51,36.51,0,0,1-9.63-1.29,24.81,24.81,0,0,1-8.05-3.68l4.24-8.21a20.29,20.29,0,0,0,6.09,3.08,23.29,23.29,0,0,0,7.09,1.1,11.07,11.07,0,0,0,6.35-1.59,5.08,5.08,0,0,0,2.32-4.44,5,5,0,0,0-2.42-4.5c-1.61-1-4.4-1.52-8.37-1.52h-11.85l2.38-26.09h28.27V188h-19.33l-.73,8.8h3.78Q1413.23,196.76,1417.89,200.67Z" transform="translate(-823.83 -145.45)"/><path class="cls-4" d="M909,272.23s3.23-2.85,6,0,8.07,24.53,8.07,24.53a48,48,0,0,1,3.46,8.53c.92,3.69-10.14,26-10.14,26L889.85,310s-4.84.37-6-2.63-2.08-11.53-2.08-11.53l8.07-8.53s-5.3-1.61-6.45-3.92-.23-5.53-.23-5.53Z" transform="translate(-823.83 -145.45)"/><path class="cls-2" d="M926.83,261.45c-4.32,2.18-13.57,5.91-14.57,17.94s1.78,30.78-2.45,36.78-17.94,7.33-22.62-2.36-3.34-35-4.34-39.56-4.68-7.9-8.36-9.9,26.57-21.05,26.57-21.05Z" transform="translate(-823.83 -145.45)"/><path class="cls-4" d="M900,376.07S887.08,339,886.62,333.88s-1.23-14.07,2.27-21.68a49.85,49.85,0,0,0,4.21-14.06c.21-.92-1.81-15.68,0-21s4.59-5.3,6.9-4.61,4.38,4.15,4.38,9.22,1.15,15.68,2.3,23.06,9.69,26.51,9.69,26.51-.24,8.3,0,11.76,10.14,24.44,10.14,24.44l-18.68,13.83Z" transform="translate(-823.83 -145.45)"/><path class="cls-2" d="M835.91,493.44" transform="translate(-823.83 -145.45)"/><path class="cls-5" d="M831.12,492.73" transform="translate(-823.83 -145.45)"/><path class="cls-2" d="M823.83,500C862.38,477.09,877,476.76,883,481.35c1.91,1.47,12.27,10.62,12.27,10.62h0l15.59-27.87-19.24-87.58s15.82-11.47,28.53-11.46c12.31,0,17.07,5.53,17.07,5.53,11.31,21.41,24.93,55,25.73,97.16A206.74,206.74,0,0,1,961,500Z" transform="translate(-823.83 -145.45)"/><path class="cls-5" d="M897.12,499.37c-.68-4.61-2.43-7-4-8.33a23.09,23.09,0,0,0-3.54-2.2,10.94,10.94,0,0,1,4,1.94c1.21.91,3.65,3.21,4.52,8.51Z" transform="translate(-823.83 -145.45)"/><path class="cls-5" d="M911.37,499a57.74,57.74,0,0,0-8-7.12c-3-2.2-5.5-3.65-5.4-3.81s3.11,1.19,6,3a39.43,39.43,0,0,1,8.52,7.21Z" transform="translate(-823.83 -145.45)"/><path class="cls-5" d="M919,498.4c-4.68-3.12-9.44-5.21-12.7-7.1s-5.13-3.29-5-3.45,2.12,1,5.49,2.56,8.18,3.58,13,6.81" transform="translate(-823.83 -145.45)"/><path class="cls-5" d="M957.91,460.65c-.12.21-2.57-1.35-6.89-2.91a40.42,40.42,0,0,0-34.47,3.11c-4,2.32-6.1,4.29-6.26,4.1s.4-.63,1.35-1.53A30.81,30.81,0,0,1,916,460a37.88,37.88,0,0,1,35.36-3.2,31.32,31.32,0,0,1,4.93,2.58C957.41,460.1,958,460.57,957.91,460.65Z" transform="translate(-823.83 -145.45)"/><circle class="cls-2" cx="74.17" cy="69.85" r="54.24"/><path class="cls-3" d="M911.61,195q5.49,5.92,5.49,17a28.82,28.82,0,0,1-2.94,13.51,20.1,20.1,0,0,1-8.31,8.54A25.56,25.56,0,0,1,893.47,237a29.74,29.74,0,0,1-7.09-.82,18.93,18.93,0,0,1-5.76-2.36l4-7.87a15,15,0,0,0,8.67,2.31q5.9,0,9.33-3.47t3.71-10Q902.14,219,894.79,219a18.12,18.12,0,0,1-8.08-1.79,14.22,14.22,0,0,1-5.76-5.06,13.68,13.68,0,0,1-2.12-7.58,14.5,14.5,0,0,1,2.32-8.15,15.24,15.24,0,0,1,6.33-5.39,20.54,20.54,0,0,1,8.9-1.89Q906.12,189.1,911.61,195Zm-8.71,14a6.78,6.78,0,0,0,.07-10,8.6,8.6,0,0,0-5.93-1.92,8.24,8.24,0,0,0-5.59,1.86,6.27,6.27,0,0,0-2.16,5,6.38,6.38,0,0,0,2.16,5.06A9.5,9.5,0,0,0,902.9,209Z" transform="translate(-823.83 -145.45)"/><path class="cls-4" d="M1182.89,252.77s-2.51-3.5-5.85-1.33-13.31,22.12-13.31,22.12a47.94,47.94,0,0,0-5.26,7.55c-1.72,3.4,4.11,27.66,4.11,27.66l30.59-14.94s4.63,1.44,6.42-1.22,4.59-10.78,4.59-10.78l-6-10.11s5.53-.4,7.17-2.39,1.45-5.35,1.45-5.35Z" transform="translate(-823.83 -145.45)"/><path class="cls-2" d="M1167.88,238.3c3.73,3.09,11.93,8.77,10.23,20.73s-8.57,29.62-5.77,36.4,15.86,11.13,22.57,2.72,11-33.39,13-37.61,6.31-6.66,10.34-7.8S1197,226.32,1197,226.32Z" transform="translate(-823.83 -145.45)"/><path class="cls-4" d="M1168.61,356s20.83-33.32,22.4-38.17,4.33-13.44,2.6-21.63a50.61,50.61,0,0,1-1-14.65c0-.94,5.26-14.88,4.66-20.46s-3.29-6.18-5.69-6-5.2,3.07-6.32,8a195.83,195.83,0,0,1-7.37,22c-2.76,6.93-15.32,23.7-15.32,23.7s-1.62,8.14-2.61,11.46-15.32,21.58-15.32,21.58l15.14,17.63Z" transform="translate(-823.83 -145.45)"/><circle class="cls-2" cx="1206.24" cy="199.7" r="54.24" transform="translate(-799.5 367.28) rotate(-24.23)"/><path class="cls-6" d="M1212.34,500l-33.63-13-49.35-36.39,59.77-95.06-45.64-34.47s-60.5,85.87-73,111.41c-4.25,8.67-13,22-11,39.09,1.56,13.19,8.45,23,13,28.39Z" transform="translate(-823.83 -145.45)"/><path class="cls-7" d="M1130,451.14c.06.46-8,.28-16.49,4.75s-13.1,11-13.44,10.68c-.13-.09.79-1.86,2.9-4.29A34.35,34.35,0,0,1,1124.79,451C1128,450.69,1130,451,1130,451.14Z" transform="translate(-823.83 -145.45)"/><path class="cls-3" d="M1220,198.15a12.52,12.52,0,0,1,3.25,8.77,13.87,13.87,0,0,1-2.12,7.45,14.78,14.78,0,0,1-6.46,5.46,24.68,24.68,0,0,1-10.62,2,36.53,36.53,0,0,1-9.64-1.29,24.84,24.84,0,0,1-8-3.67l4.17-8.21a20.46,20.46,0,0,0,6.12,3.08,23.56,23.56,0,0,0,7.12,1.09,11.29,11.29,0,0,0,6.36-1.56,5,5,0,0,0,2.31-4.4q0-5.68-8.67-5.69h-4.9v-7.09l9.54-10.79h-19.73v-8.6h32.44v6.95l-10.46,11.92Q1216.75,194.61,1220,198.15Z" transform="translate(-823.83 -145.45)"/><path class="cls-6" d="M1072.51,500" transform="translate(-823.83 -145.45)"/></g></svg>