<svg xmlns="http://www.w3.org/2000/svg" viewBox="0 0 446.43 448.82"><defs><style>.cls-1{fill:#e0e0e0;}.cls-2{fill:#ebebeb;}.cls-3{fill:#263238;}.cls-4{fill:#fff;}.cls-5{fill:#5b9add;}.cls-6{fill:#aa6550;}.cls-7{fill:#455a64;}.cls-8{fill:#def7e5;}.cls-9{fill:#7f4437;}.cls-10{fill:#ffbf9d;}.cls-11{fill:#ff9a6c;}.cls-12{opacity:0.6;}.cls-13{opacity:0.3;}.cls-14{fill:none;stroke:#4e585d;stroke-miterlimit:10;stroke-width:0.05px;}.cls-15{fill:#ff725e;}</style></defs><g id="Line"><path class="cls-1" d="M1997.74,247.41a1,1,0,0,1,0-.23l0-.66c0-.61,0-1.45,0-2.54,0-2.22-.05-5.41-.09-9.44l.16.15-48.65.1c.11-.11-.25.24.24-.25h0v6.52q0,3.22,0,6.33l-.24-.24,34.67.11,10.24.07,2.76,0,.73,0h.26l-.23,0h-.69l-2.72,0-10.18.07-34.84.11h-.24v-6.57c0-1.07,0-2.16,0-3.25v-3.27h0c.5-.5.14-.14.26-.25l48.65.1h.15v.15c0,4.07-.07,7.29-.09,9.53,0,1.07,0,1.9,0,2.5l0,.64A1.23,1.23,0,0,1,1997.74,247.41Z" transform="translate(-1729.71 -49.68)"/><path class="cls-1" d="M2004.33,234.54s0-.09,0-.25l0-.68c0-.63,0-1.49,0-2.58,0-2.25-.06-5.44-.1-9.36l.18.18-29.23.07.25-.25h0V225c0,1.11,0,2.2,0,3.28v6.24l-.24-.24,20.91.12,6.09.06,1.64,0,.59,0a3.28,3.28,0,0,1-.53,0l-1.59,0-6,.06-21.07.12h-.24v-.24c0-2,0-4.09,0-6.24v-6.61h0l.25-.25,29.23.07h.18v.18c0,4-.07,7.19-.1,9.47,0,1.07,0,1.92,0,2.54A6.65,6.65,0,0,1,2004.33,234.54Z" transform="translate(-1729.71 -49.68)"/><path class="cls-1" d="M1796,285.26s0-.08,0-.23l0-.66c0-.61,0-1.45,0-2.54,0-2.22,0-5.41-.09-9.44l.15.15-48.65.1.25-.25h0v6.52q0,3.22,0,6.33l-.24-.24,34.67.11,10.24.07,2.76,0h.73l.25,0s-.07,0-.22,0h-.7l-2.71,0-10.18.07-34.84.11h-.24v-.24c0-2.07,0-4.18,0-6.33v-6.52h0l.25-.25,48.65.1h.15v.15c0,4.06-.06,7.29-.08,9.53,0,1.07,0,1.9,0,2.5v.64C1796,285.2,1796,285.27,1796,285.26Z" transform="translate(-1729.71 -49.68)"/><path class="cls-1" d="M1802.63,272.39a1.41,1.41,0,0,1,0-.25c0-.18,0-.4,0-.68,0-.63,0-1.49,0-2.58,0-2.26-.06-5.44-.1-9.36l.18.18-29.23.07.24-.25h0v6.61c0,2.15,0,4.24,0,6.24l-.23-.24,20.91.12,6.09.06,1.64,0,.59,0a3.28,3.28,0,0,1-.53,0l-1.6,0-6,.06-21.07.12h-.24v-.24c0-2,0-4.09,0-6.24v-6.61h0c-.06.05.47-.47.25-.25l29.23.07h.18v.18c0,4-.08,7.19-.1,9.47,0,1.07,0,1.92,0,2.54S1802.64,272.4,1802.63,272.39Z" transform="translate(-1729.71 -49.68)"/><rect class="cls-2" x="207.91" y="14.48" width="48.65" height="12.87"/><path class="cls-1" d="M1965.71,90.59a1.35,1.35,0,0,1,0-.24v-.66c0-.6,0-1.45,0-2.53,0-2.22-.05-5.41-.08-9.44l.15.15-48.65.1c.11-.12-.25.24.24-.25h0V90.59l-.25-.24,34.67.11,10.24.07,2.77,0h.72l.26,0h-.23l-.69,0-2.72,0-10.18.07-34.84.11h-.24V77.74h0l.25-.25,48.65.1h.15v.15c0,4.06-.07,7.29-.09,9.53,0,1.07,0,1.9,0,2.5,0,.26,0,.47,0,.63A1.66,1.66,0,0,1,1965.71,90.59Z" transform="translate(-1729.71 -49.68)"/><rect class="cls-2" x="351.9" y="245.18" width="48.65" height="12.87"/><path class="cls-1" d="M2109.69,321.28a2.07,2.07,0,0,1,0-.23l0-.66c0-.61,0-1.45,0-2.53,0-2.22-.05-5.42-.09-9.45l.15.15-48.65.1.25-.25h0V315q0,3.23,0,6.33L2061,321l34.67.11,10.24.07,2.76,0,.73,0h.25s-.07,0-.22,0l-.69,0-2.72,0-10.18.07-34.84.11h-.24V315c0-1.07,0-2.15,0-3.24v-3.29h0l.25-.24,48.65.09h.16v.15c0,4.07-.07,7.29-.09,9.54,0,1.07,0,1.9,0,2.5,0,.26,0,.46,0,.63S2109.7,321.29,2109.69,321.28Z" transform="translate(-1729.71 -49.68)"/><path class="cls-3" d="M2165.79,469.35c0,.14-92.77.26-207.18.26s-207.2-.12-207.2-.26,92.75-.26,207.2-.26S2165.79,469.2,2165.79,469.35Z" transform="translate(-1729.71 -49.68)"/><path class="cls-3" d="M2165.79,497.56c0,.14-92.77.26-207.18.26s-207.2-.12-207.2-.26,92.75-.26,207.2-.26S2165.79,497.41,2165.79,497.56Z" transform="translate(-1729.71 -49.68)"/><path class="cls-4" d="M1827.66,107.51l-3.58-7.28a26.08,26.08,0,1,0-4.74,8.06h0Z" transform="translate(-1729.71 -49.68)"/><path class="cls-3" d="M1827.66,107.51l-.52.06-1.58.17-6.22.65a.09.09,0,0,1-.1-.08.07.07,0,0,1,0,0h0l.15.1a26.21,26.21,0,0,1-10.48,7.41,25.19,25.19,0,0,1-3.89,1.15,29.66,29.66,0,0,1-4.32.53,26,26,0,0,1-9.39-1.29,26.14,26.14,0,0,1-17.94-26,25.81,25.81,0,0,1,3.52-12l.84-1.38,1-1.3.47-.65.53-.6,1.07-1.19c.36-.38.77-.73,1.15-1.09a14.52,14.52,0,0,1,1.19-1,23.7,23.7,0,0,1,2.56-1.81,26.19,26.19,0,0,1,31.62,2.89,26.3,26.3,0,0,1,5.73,7.59,28.46,28.46,0,0,1,1.63,4,34.43,34.43,0,0,1,.89,4,26.15,26.15,0,0,1-1.37,12.74v-.07l2.63,5.47c.28.6.5,1.06.66,1.39l.21.46s-.1-.17-.26-.48l-.7-1.4-2.7-5.36a.11.11,0,0,1,0-.08,26,26,0,0,0,1.26-12.63,33.67,33.67,0,0,0-.89-3.92,29.19,29.19,0,0,0-1.64-4,26,26,0,0,0-25.64-14.12,26.32,26.32,0,0,0-11.2,3.86,22.83,22.83,0,0,0-2.51,1.78,12.57,12.57,0,0,0-1.17,1c-.38.36-.78.7-1.14,1.07l-1,1.18-.53.59-.46.63-.94,1.28-.82,1.37a25.36,25.36,0,0,0-3.47,11.82,25.75,25.75,0,0,0,2.15,11.58,25.9,25.9,0,0,0,24.75,15.41,27.86,27.86,0,0,0,4.27-.51,24.67,24.67,0,0,0,3.85-1.12,26.16,26.16,0,0,0,10.44-7.26.09.09,0,0,1,.13,0,.09.09,0,0,1,0,.11h0l-.09-.13,6.17-.53,1.61-.13Z" transform="translate(-1729.71 -49.68)"/><polygon class="cls-5" points="57.84 43.3 61.21 39.92 67.72 45.7 80.49 33.42 83.62 36.79 67.24 52.21 57.84 43.3"/><path class="cls-6" d="M2092.7,412.37,2063.44,414l1.6-25.11s-2-.29-2.89-11.11-2.59-29.18-2.59-29.18h0a37.7,37.7,0,0,1,38.13,2.22l1.69,1.12Z" transform="translate(-1729.71 -49.68)"/><path class="cls-6" d="M2096.85,365c.17-.09,7.29-2.7,7.55,4.72s-7.24,6.15-7.26,5.93S2096.85,365,2096.85,365Z" transform="translate(-1729.71 -49.68)"/><path class="cls-6" d="M2062,365.76c-.19-.06-6.9-1.4-6.17,6s8,5.12,8,4.91S2062,365.76,2062,365.76Z" transform="translate(-1729.71 -49.68)"/><path class="cls-3" d="M2099.19,364c-.69,6.28-.25,9.52-1,13.73-1.18,6.67-4.1,11.91-9.78,15.58s-13.68,4.15-19,0c-3.73-2.86-6.46-6.18-7.3-10.8s-1.91-12.84-2.25-17.52c-.63-8.45-1.74-16.49-1.74-16.49l23.85-6,14.29,7.25Z" transform="translate(-1729.71 -49.68)"/><path class="cls-3" d="M2060.73,358.55a4.72,4.72,0,0,1-4.05-.83c-1.17-.83-1.72-4.1-1.72-4.1s-3.08-1.53-3.49-3a4.21,4.21,0,0,1,1-4.28,8,8,0,0,1,9.65-10.23,7.83,7.83,0,0,1,12.4-2.45,10.14,10.14,0,0,1,18.71,3.33,5,5,0,0,1,7.78,5.87,4,4,0,0,1,3.93,6.59c-.64.7-1.57,1.25-1.76,2.18a5.56,5.56,0,0,0,.55,2.49,5.14,5.14,0,0,1-2.08,5.08,15.13,15.13,0,0,1-5.29,2.31,14.77,14.77,0,0,1-6.52.88c-2.18-.36-4.31-2-4.44-4.24a10.86,10.86,0,0,1-14.55-1.49,5.65,5.65,0,0,1-9.73,1.19" transform="translate(-1729.71 -49.68)"/><path class="cls-3" d="M2076.45,397.86c0,.17,1.9.52,4.25.09s4.05-1.4,4-1.56-1.83.5-4.08.89S2076.46,397.66,2076.45,397.86Z" transform="translate(-1729.71 -49.68)"/><path class="cls-7" d="M2096.37,360.07s.22.53-.37,1.22a2.7,2.7,0,0,1-1.33.81,12.6,12.6,0,0,1-2,.29,4.33,4.33,0,0,0-2.15.89,9.84,9.84,0,0,1-2.47,1.5,6.93,6.93,0,0,1-6.55-.95l.41-.05a6.57,6.57,0,0,1-3.14,2.17,6.31,6.31,0,0,1-5.12-.49,6.61,6.61,0,0,1-3-3.56l.45.08a5,5,0,0,1-4.13,1.74,4.77,4.77,0,0,1-4.18-3.51,1.84,1.84,0,0,1-.08-.79,5.62,5.62,0,0,0,1.38,2.54,4.38,4.38,0,0,0,2.91,1.33,4.59,4.59,0,0,0,3.7-1.64l.29-.35.15.43a6.16,6.16,0,0,0,2.78,3.23,5.8,5.8,0,0,0,4.65.43,6.11,6.11,0,0,0,2.87-2l.18-.23.23.18a6.46,6.46,0,0,0,6,.94,9.82,9.82,0,0,0,2.4-1.4,4.77,4.77,0,0,1,2.36-.9,16.66,16.66,0,0,0,2-.19,2.75,2.75,0,0,0,1.25-.67A1.81,1.81,0,0,0,2096.37,360.07Z" transform="translate(-1729.71 -49.68)"/><path class="cls-7" d="M2064.85,356.21a3.47,3.47,0,0,1-.58-1.17,8.47,8.47,0,0,1-.4-3.55,8.81,8.81,0,0,1,2-4.91,9,9,0,0,1,5.73-3,8.85,8.85,0,0,1,4.19.49l-.35.12a6.7,6.7,0,0,1,4.05-3,6.34,6.34,0,0,1,4,.3,6,6,0,0,1,2.16,1.48c.42.45.58.75.55.76a8.26,8.26,0,0,0-2.84-1.9,6.15,6.15,0,0,0-3.72-.16,6.28,6.28,0,0,0-3.69,2.78l-.12.2-.23-.08a8.31,8.31,0,0,0-3.91-.43,8.53,8.53,0,0,0-5.39,2.78,8.66,8.66,0,0,0-2,4.59A10.56,10.56,0,0,0,2064.85,356.21Z" transform="translate(-1729.71 -49.68)"/><path class="cls-7" d="M2077.82,358.2s-.17-.23-.36-.7a10.23,10.23,0,0,1-.56-2.09,6.75,6.75,0,0,1,.25-3.24,4.85,4.85,0,0,1,2.76-2.88,3.53,3.53,0,0,1,2.1-.16l-.36.3a5.25,5.25,0,0,1,1-3.14,5.61,5.61,0,0,1,2-1.72,4.69,4.69,0,0,1,1.64-.52c.4,0,.62,0,.62,0a9.38,9.38,0,0,0-2.07.81,5.41,5.41,0,0,0-1.73,1.69,4.9,4.9,0,0,0-.84,2.83v.37l-.37-.08a3,3,0,0,0-1.75.14,4.44,4.44,0,0,0-2.46,2.52,6.59,6.59,0,0,0-.34,3C2077.51,357.12,2077.93,358.17,2077.82,358.2Z" transform="translate(-1729.71 -49.68)"/><path class="cls-7" d="M2083.17,374.55s-.33.75-1.49,1.28a4.51,4.51,0,0,1-4.72-.6h.4a5.12,5.12,0,0,1-.49.42,4.39,4.39,0,0,1-2.85.82,4.14,4.14,0,0,1-2.25-.87,2.8,2.8,0,0,1-1.21-1.79c.09-.06.41.74,1.46,1.45a3.92,3.92,0,0,0,2,.67,4,4,0,0,0,2.47-.76,3.9,3.9,0,0,0,.43-.36l.19-.19.21.17a4.31,4.31,0,0,0,4.18.68A10.76,10.76,0,0,0,2083.17,374.55Z" transform="translate(-1729.71 -49.68)"/><path class="cls-7" d="M2084.74,380.36c.07,0,.06.49-.27,1.17a4.2,4.2,0,0,1-2.13,2,4.27,4.27,0,0,1-2.91.11c-.71-.25-1-.58-1-.64s.44.11,1.12.23a4.58,4.58,0,0,0,2.57-.25,4.64,4.64,0,0,0,2-1.64C2084.5,380.76,2084.65,380.34,2084.74,380.36Z" transform="translate(-1729.71 -49.68)"/><path class="cls-6" d="M2161,372a1.67,1.67,0,0,1,2.28.31c.91,1.22,1.82,9.74,1.82,9.74a18.84,18.84,0,0,1,.89,3.42c.16,1.45-5.18,9.4-5.18,9.4l-9-9.47s-1.86-.1-2.15-1.3a27.7,27.7,0,0,1-.21-4.49l3.51-2.84s-1.94-.88-2.26-1.82a3.46,3.46,0,0,1,.19-2.12Z" transform="translate(-1729.71 -49.68)"/><path class="cls-5" d="M2167.12,367.88c-1.64.88-5.16,2.4-5.43,7s1,11.8-.59,14.14-6.82,3-8.7-.69-1.62-13.41-2.05-15.15a6.1,6.1,0,0,0-3.3-3.72c-1.43-.73,10-8.33,10-8.33Z" transform="translate(-1729.71 -49.68)"/><path class="cls-6" d="M2150.14,410s-.91-13.79-.82-15.74.24-5.42,2-8.13a19.49,19.49,0,0,0,2.32-5.14c.12-.34.1-6.06,1.06-8s2-1.78,2.86-1.4,1.45,1.8,1.2,3.73a74.64,74.64,0,0,0-.3,8.89c.07,2.87,6.15,4.46,6.15,4.46s-2.89,9-3,10.3,1.67,11.62,1.67,11.62l-8.28,2.81Z" transform="translate(-1729.71 -49.68)"/><circle class="cls-5" cx="2155.32" cy="350.93" r="20.83" transform="translate(-1754.92 183.51) rotate(-6.16)"/><path class="cls-6" d="M2119.38,414s2.22-2.24,13.45,8.82c6.23,6.14,16.85,17.34,16.85,17.34l0-38.39,12-2.71s6.91,47.08,6.7,53c-.35,9.76-3.69,16.27-13.42,15.45S2121,446.68,2121,446.68Z" transform="translate(-1729.71 -49.68)"/><polygon class="cls-6" points="293.2 409.13 288.42 448.58 311.6 448.58 313.92 414.9 293.2 409.13"/><path class="cls-8" d="M2036.82,414a21.16,21.16,0,0,0-11.15,15.19c-1.66,9.27-6.72,42.47-6.72,42.47h29.36L2049.7,444Z" transform="translate(-1729.71 -49.68)"/><path class="cls-8" d="M2118.71,446.21l1.85,5.09,17.64,11.3,10.9-26.43s-26.76-26.43-32.28-25.41l-6.22,19.61Z" transform="translate(-1729.71 -49.68)"/><path class="cls-4" d="M2161.47,350.25a4.73,4.73,0,0,1,1.71,3.83,5.31,5.31,0,0,1-.78,2.83,5.45,5.45,0,0,1-2.37,2,9.13,9.13,0,0,1-3.92.76,13.64,13.64,0,0,1-3.53-.47,9.18,9.18,0,0,1-2.94-1.35l1.55-3a7.43,7.43,0,0,0,2.23,1.13,8.46,8.46,0,0,0,2.6.4,4.08,4.08,0,0,0,2.33-.58,1.88,1.88,0,0,0,.85-1.63,1.83,1.83,0,0,0-.89-1.65,6.12,6.12,0,0,0-3.07-.56h-4.34l.87-9.56h10.36v3.16h-7.08l-.27,3.22h1.38C2158.56,348.81,2160.32,349.29,2161.47,350.25Z" transform="translate(-1729.71 -49.68)"/><path class="cls-8" d="M2098.79,408.67a234.69,234.69,0,0,0-39.06-.89c-1.23,0-21.29,4.2-22.91,6.18l6.81,47.44.57,36.48,77.26.38-2.08-86.9C2116.76,410.08,2113.5,410.3,2098.79,408.67Z" transform="translate(-1729.71 -49.68)"/><path class="cls-3" d="M2119.43,418.68c.15,0,.57,9.15,1,20.45s.57,20.46.43,20.46-.57-9.14-1-20.44S2119.29,418.69,2119.43,418.68Z" transform="translate(-1729.71 -49.68)"/><path class="cls-3" d="M2039.71,425.07a2,2,0,0,1,.12.53c.06.4.14.9.24,1.51.2,1.31.45,3.22.74,5.58.58,4.72,1.27,11.26,1.82,18.5s.87,13.8,1,18.55c.07,2.38.11,4.31.11,5.64v1.53a2,2,0,0,1,0,.53,2,2,0,0,1-.07-.53c0-.41-.05-.91-.09-1.53-.07-1.4-.17-3.3-.28-5.62-.24-4.75-.61-11.3-1.17-18.53s-1.18-13.77-1.67-18.5c-.23-2.3-.43-4.2-.57-5.6-.06-.61-.11-1.11-.14-1.52A2.75,2.75,0,0,1,2039.71,425.07Z" transform="translate(-1729.71 -49.68)"/><path class="cls-9" d="M2162.53,450.06a17,17,0,0,1-2.12-1.71c-1.27-1.09-3-2.57-5-4.15s-3.87-2.94-5.23-3.92a16.36,16.36,0,0,1-2.16-1.65,12.25,12.25,0,0,1,2.37,1.35c1.41.9,3.32,2.23,5.34,3.81s3.76,3.13,5,4.29A12.11,12.11,0,0,1,2162.53,450.06Z" transform="translate(-1729.71 -49.68)"/><path class="cls-10" d="M1963.43,153.52s5.43-12.38,5.5-18.55.3-16,2.31-15.82a2.28,2.28,0,0,1,2.35,2.69c0,1.26-1.25,11.32-.61,12.09a1,1,0,0,0,1.8-.38c0-.82,2.89-13,3.89-14s3.69-1.28,3.28,2-2.54,9.51-2.77,11.81-.59,1.91.47,3.21c0,0,7.08-12.68,8.2-12.87a1.7,1.7,0,0,1,2,2.23c-.35,1.7-4.32,8.56-4.88,9.72s-1.36,2.63-1.36,2.63l-.34,1.25s1.23-1.22,2-1,2.25,1.27,2.13,2.75-5,8.82-6.37,11.75-6.76,7.93-6.76,7.93Z" transform="translate(-1729.71 -49.68)"/><path class="cls-10" d="M1964,151.45a20.24,20.24,0,0,0,.69-4.88c.2-1.64.85-3.41,2.33-4.13a5.8,5.8,0,0,1,2.65-.41,84.92,84.92,0,0,1,11.12,1.19c-.37,1.8-.61,3.59-2.18,4.54a9.08,9.08,0,0,1-6.21.53,12.25,12.25,0,0,1,.31,10" transform="translate(-1729.71 -49.68)"/><path class="cls-11" d="M1972.66,158.26a24.91,24.91,0,0,0,.63-2.72,12.29,12.29,0,0,0-1.14-7.15l-.2-.42.46.12a9.68,9.68,0,0,0,5.21-.17,3.4,3.4,0,0,0,2.06-1.79,12.59,12.59,0,0,0,.81-3l.21.31-1-.15c-3.11-.47-6.08-.88-8.8-1a9.43,9.43,0,0,0-3.73.24,3.86,3.86,0,0,0-2,2.38,10.46,10.46,0,0,0-.51,2.69c-.07.81-.12,1.52-.22,2.1a7.63,7.63,0,0,1-.32,1.3,1.4,1.4,0,0,1-.2.42s.2-.61.32-1.75c.06-.57.09-1.27.13-2.09a10.41,10.41,0,0,1,.45-2.79,4.22,4.22,0,0,1,2.19-2.65,9.7,9.7,0,0,1,3.93-.33,81,81,0,0,1,8.85,1l1,.15.27,0,0,.26a12.91,12.91,0,0,1-.86,3.09,3.89,3.89,0,0,1-2.36,2,9,9,0,0,1-2.85.45,9.15,9.15,0,0,1-2.64-.33l.25-.3a12.21,12.21,0,0,1,1,7.38,10.89,10.89,0,0,1-.56,2A3.11,3.11,0,0,1,1972.66,158.26Z" transform="translate(-1729.71 -49.68)"/><path class="cls-10" d="M1983.23,139.33a44.71,44.71,0,0,0-5.1,5.47,2.77,2.77,0,0,0-.81,2,1.85,1.85,0,0,0,1.68,1.38,4.45,4.45,0,0,0,2.25-.54,14.69,14.69,0,0,0,4.58-3.43" transform="translate(-1729.71 -49.68)"/><path class="cls-11" d="M1985.83,144.23s-.13.26-.47.65a12.4,12.4,0,0,1-1.6,1.48A13.6,13.6,0,0,1,1981,148a4.07,4.07,0,0,1-1.94.42,2.2,2.2,0,0,1-1.85-1.2,1.72,1.72,0,0,1-.08-1.18,3,3,0,0,1,.48-1c.4-.56.8-1,1.2-1.5.78-.92,1.54-1.71,2.19-2.35a13.22,13.22,0,0,1,2.25-1.93,24.53,24.53,0,0,1-2,2.19c-.61.66-1.33,1.47-2.09,2.4-.37.47-.78,1-1.14,1.48a1.71,1.71,0,0,0-.35,1.65,1.75,1.75,0,0,0,1.42.9,3.72,3.72,0,0,0,1.71-.35,14.48,14.48,0,0,0,2.75-1.54C1985,145,1985.77,144.17,1985.83,144.23Z" transform="translate(-1729.71 -49.68)"/><path class="cls-7" d="M1900,432.42l-.09,22.94s23.28,7.8,23.68,12l-44.49,1.42-1.32-35.75Z" transform="translate(-1729.71 -49.68)"/><path class="cls-1" d="M1886.06,453.87a1.83,1.83,0,0,0-1.19,2.12,1.76,1.76,0,0,0,2.08,1.2,1.93,1.93,0,0,0,1.25-2.25,1.8,1.8,0,0,0-2.3-1" transform="translate(-1729.71 -49.68)"/><path class="cls-3" d="M1879.07,468.82v-3.61h42.65s2,.8,1.83,2.2Z" transform="translate(-1729.71 -49.68)"/><path class="cls-4" d="M1900.59,455.11c0,.22-1.08.36-2.13,1.09s-1.59,1.66-1.79,1.58.08-1.34,1.36-2.21S1900.63,454.91,1900.59,455.11Z" transform="translate(-1729.71 -49.68)"/><path class="cls-4" d="M1905.32,456.9c0,.2-.88.6-1.58,1.55s-.89,1.92-1.11,1.91-.4-1.22.51-2.38S1905.31,456.69,1905.32,456.9Z" transform="translate(-1729.71 -49.68)"/><path class="cls-4" d="M1908.14,462.4c-.19.05-.53-1,0-2.23s1.52-1.72,1.62-1.54-.51.83-.92,1.83S1908.36,462.37,1908.14,462.4Z" transform="translate(-1729.71 -49.68)"/><path class="cls-4" d="M1900,449.88c-.08.21-1.09-.06-2.31.06s-2.17.54-2.29.36.77-1,2.22-1.11S1900.13,449.71,1900,449.88Z" transform="translate(-1729.71 -49.68)"/><path class="cls-7" d="M1846.58,436.9l-1.24,27.73,5.35,22.21a2.85,2.85,0,0,1-2.29,3.47h0a2.84,2.84,0,0,1-2.48-.79c-4.15-4.15-18.92-19.71-19-21.19-.1-2.36-.78-29.67-.78-29.67Z" transform="translate(-1729.71 -49.68)"/><path class="cls-3" d="M1848.4,490.31l-21.56-24.19,0,1.17a4.46,4.46,0,0,0,1,2.8c1.71,2.11,6.58,7.83,18.06,19.43a2.88,2.88,0,0,0,2.57.79Z" transform="translate(-1729.71 -49.68)"/><g class="cls-12"><path class="cls-4" d="M1832.73,457.29a1.74,1.74,0,0,1,.42,2.26,1.66,1.66,0,0,1-2.24.43,1.82,1.82,0,0,1-.43-2.39,1.73,1.73,0,0,1,2.37-.2" transform="translate(-1729.71 -49.68)"/></g><path class="cls-4" d="M1842.32,478.05a8.58,8.58,0,0,1,2.48-2.11,8.77,8.77,0,0,1,3.21-.54c0-.07-.33-.29-1-.4a4.55,4.55,0,0,0-4.4,2.05C1842.3,477.61,1842.25,478,1842.32,478.05Z" transform="translate(-1729.71 -49.68)"/><path class="cls-4" d="M1844.21,481.8c.13.13,1-.76,2.49-1.14s2.67-.11,2.71-.29-1.24-.75-2.88-.29S1844.07,481.73,1844.21,481.8Z" transform="translate(-1729.71 -49.68)"/><path class="cls-4" d="M1838.74,473.2c.13.14,1.52-1.23,3.72-2s4.12-.69,4.13-.87-2-.58-4.34.29S1838.61,473.12,1838.74,473.2Z" transform="translate(-1729.71 -49.68)"/><path class="cls-4" d="M1838.41,464.74c.07.17,1.62-.44,3.62-.46s3.56.48,3.63.31a7.1,7.1,0,0,0-7.25.15Z" transform="translate(-1729.71 -49.68)"/><path class="cls-4" d="M1838.57,456.6a13.76,13.76,0,0,1,3.75-.59c2.11.09,3.56,1.15,3.66,1s-.25-.41-.88-.79a6.09,6.09,0,0,0-2.75-.82,6.17,6.17,0,0,0-2.82.5C1838.86,456.21,1838.53,456.53,1838.57,456.6Z" transform="translate(-1729.71 -49.68)"/><path class="cls-4" d="M1842.3,454.46a2.24,2.24,0,0,0,.06-1,7.25,7.25,0,0,0-.77-2.77,3.26,3.26,0,0,0-1.35-1.57,1.16,1.16,0,0,0-1.3.22,1.9,1.9,0,0,0-.46,1.25,4,4,0,0,0,3.44,3.79,4.66,4.66,0,0,0,4.63-2.34,1.6,1.6,0,0,0,.1-1.34,1.12,1.12,0,0,0-1.16-.62,4,4,0,0,0-1.84.91,7.77,7.77,0,0,0-1.94,2.12,2.48,2.48,0,0,0-.45.95,12.61,12.61,0,0,1,2.64-2.72,3.74,3.74,0,0,1,1.63-.75.59.59,0,0,1,.64.33,1.12,1.12,0,0,1-.13.88,4.14,4.14,0,0,1-4,2,3.48,3.48,0,0,1-3-3.18,1.31,1.31,0,0,1,.29-.88.61.61,0,0,1,.71-.14,3,3,0,0,1,1.17,1.31A10.75,10.75,0,0,1,1842.3,454.46Z" transform="translate(-1729.71 -49.68)"/><path class="cls-3" d="M1913.66,243.73A98.42,98.42,0,0,1,1917,272.6c-.21,6.17-13.76,177.3-13.76,177.3l-28,1.18,1.1-160.33-2.28.59s-12.41,68.89-13.19,80c-.7,10-10.55,82.68-10.55,82.68l-25.62,1.38,4.14-95.78,5.64-92,2.46-26.81Z" transform="translate(-1729.71 -49.68)"/><path class="cls-7" d="M1871.23,274.61a4.91,4.91,0,0,0,1.19.61,14,14,0,0,0,3.53,1.07,7.33,7.33,0,0,0,2.58-.09,5.42,5.42,0,0,0,2.65-1.41,6.46,6.46,0,0,0,1.51-2.94,33.48,33.48,0,0,0,.61-3.4c.7-4.66,1.13-8.9,1.35-12,.11-1.53.18-2.78.21-3.64a5.84,5.84,0,0,0,0-1.34,6,6,0,0,0-.21,1.32q-.15,1.47-.39,3.63c-.33,3.06-.82,7.28-1.51,11.92-.36,2.29-.57,4.63-1.94,6a5.8,5.8,0,0,1-4.78,1.47,15.53,15.53,0,0,1-3.49-.87A6.31,6.31,0,0,0,1871.23,274.61Z" transform="translate(-1729.71 -49.68)"/><path class="cls-7" d="M1878.75,252.55s-.19-.14-.59-.15a2.56,2.56,0,0,0-1.55.58,2.79,2.79,0,0,0-1.08,2.21,2.6,2.6,0,0,0,1.89,2.33,2.63,2.63,0,0,0,2.91-.75,2.81,2.81,0,0,0,.44-2.44,2.52,2.52,0,0,0-.91-1.37c-.33-.23-.55-.25-.56-.23a3.16,3.16,0,0,1,1.06,1.7,2.48,2.48,0,0,1-.45,2,2.28,2.28,0,0,1-3.84-1.25,2.47,2.47,0,0,1,.82-1.88A3.14,3.14,0,0,1,1878.75,252.55Z" transform="translate(-1729.71 -49.68)"/><path class="cls-7" d="M1834.8,266a3.42,3.42,0,0,0,1,.11,18.49,18.49,0,0,0,2.64-.09,25.48,25.48,0,0,0,15.46-7.29,19,19,0,0,0,1.73-2,3.36,3.36,0,0,0,.53-.81c-.08-.07-.94,1-2.55,2.48a28.42,28.42,0,0,1-15.22,7.19C1836.18,265.89,1834.8,265.87,1834.8,266Z" transform="translate(-1729.71 -49.68)"/><path class="cls-7" d="M1902.49,252.06a12.21,12.21,0,0,0,1.58,2.8,32.09,32.09,0,0,0,5.12,5.82,31.45,31.45,0,0,0,6.37,4.43,12.42,12.42,0,0,0,3,1.26,28.54,28.54,0,0,0-2.75-1.62,40.2,40.2,0,0,1-6.17-4.51,39.65,39.65,0,0,1-5.18-5.63A27.57,27.57,0,0,0,1902.49,252.06Z" transform="translate(-1729.71 -49.68)"/><polygon class="cls-8" points="130.53 69.07 123.85 78.24 96.66 88.75 102.65 127.37 108.36 167.35 104.82 228 191.04 228 182.06 150.48 186.96 86.03 164.54 78.19 157.76 69.95 130.53 69.07"/><path class="cls-1" d="M1857.57,122.42s7.08,35,10.69,44.87,11.54,30.55,11.92,30.93,9-18.92,10.22-29.14,1.61-27.19,1.61-30.65-3.28-17.27-3.28-17.27l-1.26-1.53-27.23-.87Z" transform="translate(-1729.71 -49.68)"/><path class="cls-8" d="M1916.67,135.71a26.44,26.44,0,0,1,8.33,9.42c2.06,4.32,18.78,32.74,18.78,32.74l19.12-26.74,16.59,10.62S1959,196.61,1956.75,200s-12.38,11.93-21.1,5.21-22-29.58-22-29.58Z" transform="translate(-1729.71 -49.68)"/><path class="cls-10" d="M1887.51,122.08l2.27-42.15c1-12-5.09-22.53-17.07-23.22h-1.11a21.45,21.45,0,0,0-21.38,19.73c-.82,10.38-1.6,21.86-1.53,27.42.15,11.52,11.68,13.3,11.68,13.3,0,.35-.33,5.74-.33,5.74l17.18,12.15Z" transform="translate(-1729.71 -49.68)"/><path class="cls-11" d="M1860.37,117.17a27.8,27.8,0,0,0,15-4.45s-3.65,8.42-15.15,7.39Z" transform="translate(-1729.71 -49.68)"/><path class="cls-3" d="M1869.46,82.56c.21.24,1.6-.73,3.53-.64s3.28,1.13,3.5.9-.1-.54-.69-1a4.79,4.79,0,0,0-2.79-1,4.61,4.61,0,0,0-2.83.8C1869.57,82,1869.35,82.44,1869.46,82.56Z" transform="translate(-1729.71 -49.68)"/><path class="cls-3" d="M1869.87,88.63a1.56,1.56,0,0,0,1.5,1.57,1.48,1.48,0,0,0,1.6-1.41,1.56,1.56,0,0,0-1.5-1.57A1.5,1.5,0,0,0,1869.87,88.63Z" transform="translate(-1729.71 -49.68)"/><path class="cls-3" d="M1863.69,95.55a11.52,11.52,0,0,0-2.87-.51c-.46-.05-.88-.14-1-.45a2.26,2.26,0,0,1,.3-1.34c.42-1.09.87-2.24,1.33-3.44,1.85-4.9,3.19-8.93,3-9s-1.86,3.84-3.72,8.75c-.44,1.21-.87,2.36-1.27,3.46a2.62,2.62,0,0,0-.24,1.77,1.13,1.13,0,0,0,.75.66,2.85,2.85,0,0,0,.77.11A11.78,11.78,0,0,0,1863.69,95.55Z" transform="translate(-1729.71 -49.68)"/><path class="cls-10" d="M1888.85,88.45c.2-.08,7.91-2.34,7.67,5.53s-8.1,6-8.11,5.78S1888.85,88.45,1888.85,88.45Z" transform="translate(-1729.71 -49.68)"/><path class="cls-11" d="M1890.91,96.85s.13.1.36.22a1.39,1.39,0,0,0,1,.05c.84-.28,1.58-1.58,1.66-3a4.64,4.64,0,0,0-.32-2,1.58,1.58,0,0,0-1-1.09.69.69,0,0,0-.82.35c-.11.22-.07.38-.11.39s-.17-.14-.09-.46a.79.79,0,0,1,.32-.48,1.05,1.05,0,0,1,.77-.18,1.92,1.92,0,0,1,1.39,1.26,4.58,4.58,0,0,1,.41,2.21c-.1,1.59-1,3-2.11,3.34a1.42,1.42,0,0,1-1.24-.25C1890.92,97,1890.88,96.86,1890.91,96.85Z" transform="translate(-1729.71 -49.68)"/><path class="cls-3" d="M1900.2,76.5c-1.43-2.89-1.58-6.22-2.25-9.38s-2.16-6.48-5.11-7.77l-.07,0c-2.64-1.29-6-1.55-8.37.18-.25-4.12-3.6-7.61-7.51-8.94s-10.34-1.17-14.27.09c-3,1-6.07,3.21-9.8,6.54a38.27,38.27,0,0,0-4.35,4.56l-4.24,10.45,2.57,5.82a11,11,0,0,0,.5,1.18v0l1.83,12c.4-3.21,1-14.44,1.37-17.65a18,18,0,0,0,13.24-5c1.9-1.82,3.46-4.16,5.9-5.16,3.14-1.28,6.68.07,9.8,1.42l-.13-.14a14.57,14.57,0,0,1,4.21,3.52,44.68,44.68,0,0,0,.57,19c.24.94.92,2.88,1.79,3.29,1.72.81,2.32-.95,3.45-1.83a4.68,4.68,0,0,1,3.26-.55,69.25,69.25,0,0,0,2.74-8,7.22,7.22,0,0,0,3.28.46c-.28-.83-.55-1.67-.83-2.5a3.69,3.69,0,0,0,1.36.74,1.28,1.28,0,0,0,1.38-.49C1900.86,77.82,1900.51,77.1,1900.2,76.5Z" transform="translate(-1729.71 -49.68)"/><path class="cls-5" d="M1880.71,60.61a9.58,9.58,0,0,1,1.07,1.13,8.17,8.17,0,0,1,1.48,3.93,14.69,14.69,0,0,1,.09,2.93c-.07,1.05-.24,2.18-.41,3.36a29.48,29.48,0,0,0-.35,3.75,13.49,13.49,0,0,0,.11,2,4.22,4.22,0,0,0,.67,2,1.71,1.71,0,0,0,1.58.66,2.56,2.56,0,0,0,1.51-.72,5.87,5.87,0,0,0,1.31-2.83h-.24a9.52,9.52,0,0,0,1.22,2.5,3.46,3.46,0,0,0,2.14,1.38,2.22,2.22,0,0,0,1.2-.13,1.95,1.95,0,0,0,1.17-1.73,1.37,1.37,0,0,0-.3-.91l-.13.1a7.47,7.47,0,0,0,2.33,2,7.14,7.14,0,0,0,.74.35,1.35,1.35,0,0,0,.27.09,1.78,1.78,0,0,0-.25-.13,7.25,7.25,0,0,1-.72-.39,7.62,7.62,0,0,1-2.24-2l-.13.1a1.47,1.47,0,0,1,0,1.71,1.7,1.7,0,0,1-.78.64,2,2,0,0,1-1.08.1,3.22,3.22,0,0,1-2-1.3,9.75,9.75,0,0,1-1.17-2.45l-.14-.37-.1.39a5.69,5.69,0,0,1-1.25,2.7,2.31,2.31,0,0,1-1.36.64,1.46,1.46,0,0,1-1.34-.56,3.91,3.91,0,0,1-.61-1.85,11.73,11.73,0,0,1-.12-2,29.37,29.37,0,0,1,.34-3.72c.16-1.18.32-2.31.38-3.38a14.26,14.26,0,0,0-.12-3,8.11,8.11,0,0,0-1.59-4A4.74,4.74,0,0,0,1880.71,60.61Z" transform="translate(-1729.71 -49.68)"/><path class="cls-5" d="M1844.48,69.2a.45.45,0,0,0,.08.08l.28.23a4.49,4.49,0,0,0,.46.35,6.17,6.17,0,0,0,.67.41,10.13,10.13,0,0,0,4.84,1.24,13,13,0,0,0,7.09-2.06,22.53,22.53,0,0,0,6.43-6.41c.93-1.33,1.72-2.7,2.56-4a15.2,15.2,0,0,1,2.81-3.3,7.94,7.94,0,0,1,3.44-1.77,5.53,5.53,0,0,1,1.76-.07,6,6,0,0,1,1.57.42,6.65,6.65,0,0,1,3.45,3.38,7.6,7.6,0,0,1,.47,1.76s0,0,0-.12,0-.22,0-.36a5.42,5.42,0,0,0-.34-1.32,6.4,6.4,0,0,0-1.16-1.83,6.39,6.39,0,0,0-3.94-2.14,5.89,5.89,0,0,0-1.82.06,8.09,8.09,0,0,0-3.56,1.8,15.59,15.59,0,0,0-2.87,3.34c-.85,1.27-1.63,2.64-2.56,4a22.44,22.44,0,0,1-6.34,6.36,12.9,12.9,0,0,1-7,2.08,10.37,10.37,0,0,1-4.79-1.14A14.65,14.65,0,0,1,1844.48,69.2Z" transform="translate(-1729.71 -49.68)"/><path class="cls-3" d="M1851.92,82c.21.25,1.61-.72,3.53-.64s3.29,1.14,3.51.9-.1-.54-.7-1a4.76,4.76,0,0,0-2.79-1,4.71,4.71,0,0,0-2.82.8C1852,81.48,1851.81,81.91,1851.92,82Z" transform="translate(-1729.71 -49.68)"/><path class="cls-3" d="M1854,88a1.56,1.56,0,0,0,1.5,1.57,1.5,1.5,0,0,0,1.61-1.41,1.57,1.57,0,0,0-1.5-1.57A1.5,1.5,0,0,0,1854,88Z" transform="translate(-1729.71 -49.68)"/><path class="cls-3" d="M1849.52,60.55c-1,1.23-2.62,2.32-4.22,2.05a12.34,12.34,0,0,1-1.68-.6c-.58.3-.56,2.23-.2,2.79a9.78,9.78,0,0,0,1.13,1.31c-2,.9-3.63.3-5.6-.55a9.88,9.88,0,0,0,5.38,8.25,3.46,3.46,0,0,0,3.16.24,3.92,3.92,0,0,0,1.54-2.38,42.78,42.78,0,0,0,2-10.45Z" transform="translate(-1729.71 -49.68)"/><path class="cls-3" d="M1863,102c0,.07.42.25,1.18.25a4.58,4.58,0,0,0,4.36-3.41c.19-.74.12-1.21,0-1.21s-.16.44-.42,1.08a5,5,0,0,1-4,3.15C1863.49,101.91,1863,101.87,1863,102Z" transform="translate(-1729.71 -49.68)"/><path class="cls-8" d="M1826.38,138.43c-1.09.27-2.72,3.26-6.8,13.32S1797,203.43,1797,206.69s.27,8.43,9.79,12.24,36.72,6.26,36.72,6.26L1844.6,207l-20.51-7.22,11.17-23.84Z" transform="translate(-1729.71 -49.68)"/><path class="cls-3" d="M1874.75,177.87c-.13.4-13,20.35-13,20.35l4.27,2.63L1877.82,180Z" transform="translate(-1729.71 -49.68)"/><polygon class="cls-3" points="145.14 116.82 146.13 119.8 148.84 119.59 154.26 122.59 154.73 125.31 156.89 125.21 158.16 125.92 153.05 134.44 151.66 133.51 151.32 130.86 148.43 130.86 143.12 127.56 142.83 125.31 139.36 126.41 138.55 125.95 144.33 116.82 145.14 116.82"/><path class="cls-7" d="M1884.44,175a7.36,7.36,0,0,1-1.27,3c-.92,1.58-2,2.63-2.14,2.51a31.85,31.85,0,0,1,1.69-2.78A19.28,19.28,0,0,1,1884.44,175Z" transform="translate(-1729.71 -49.68)"/><path class="cls-7" d="M1875.84,169.48a7.41,7.41,0,0,1-1.27,3,6.49,6.49,0,0,1-2.14,2.51,31.85,31.85,0,0,1,1.69-2.78A19.28,19.28,0,0,1,1875.84,169.48Z" transform="translate(-1729.71 -49.68)"/><path class="cls-7" d="M1886.6,174.89a21.61,21.61,0,0,1-2.37,4.28,22.22,22.22,0,0,1-2.81,4,23.41,23.41,0,0,1,2.37-4.27A23.66,23.66,0,0,1,1886.6,174.89Z" transform="translate(-1729.71 -49.68)"/><path class="cls-7" d="M1874.88,166.66a18.2,18.2,0,0,1-5.73,9.24c-.12-.11,1.55-1.9,3.12-4.46S1874.73,166.61,1874.88,166.66Z" transform="translate(-1729.71 -49.68)"/><path class="cls-3" d="M1879.42,199.74a4.29,4.29,0,0,1-.46-.76c-.29-.55-.7-1.29-1.2-2.22l-4.36-8.23-14.18-27.25c-3.75-7.26-7.25-14.06-10.22-19.83l-.07-.13.09-.11,4.58-5.62.11.3-5.38-1.29-.22,0,.14-.19c3.12-4.26,5.15-6.61,5.31-6.44,0,0-.15.12-.39.39s-.59.7-1,1.27c-.87,1.13-2.11,2.81-3.65,5l-.09-.23,5.39,1.21.3.07-.19.24-4.53,5.66,0-.24L1859.68,161c5.48,10.65,10.44,20.29,14,27.32,1.76,3.47,3.19,6.3,4.21,8.3l1.12,2.27A7.53,7.53,0,0,1,1879.42,199.74Z" transform="translate(-1729.71 -49.68)"/><path class="cls-10" d="M1844.6,207s3.42-8.78,4.22-10.12,6.15-4.27,7.49-4.27,11.22,5.34,11.36,6.55-.27,3.34-1.74,3.34-4.28-1.47-4.28-1.47l6,4.27s-.42,3.48-2.56,3.08-5.88-1.6-5.88-1.6l6.14,4.41s-2.94,3.07-4.54,2.13a38.78,38.78,0,0,0-3.88-1.87l3.88,3.48s-.8,2.54-2.14,1.87-4.14-2.14-4.14-2.14-1.34,4.95-3.08,7.35-7.91,2-7.91,2Z" transform="translate(-1729.71 -49.68)"/><path class="cls-3" d="M1881.42,199.74a5.36,5.36,0,0,1,.31-.74l1-2.07,1.54-3.25,1.88-4.4a167.64,167.64,0,0,0,8.47-26.28,151.33,151.33,0,0,0,3.93-25.73l.07.16-4.36-3.58-.13-.1.11-.12,2.25-2.39v.14l-1.65-2.59c-.17-.27-.3-.5-.42-.68s-.13-.23-.12-.24a1.06,1.06,0,0,1,.17.21l.47.64,1.74,2.53,0,.07-.06.07-2.19,2.45,0-.22,4.41,3.51.08.06v.09a143.19,143.19,0,0,1-3.82,25.84,156.13,156.13,0,0,1-8.63,26.31l-2,4.37c-.63,1.24-1.18,2.32-1.63,3.22l-1,2A3.58,3.58,0,0,1,1881.42,199.74Z" transform="translate(-1729.71 -49.68)"/><path class="cls-3" d="M1915.22,152.37a8.15,8.15,0,0,1,0,1.42c0,1-.12,2.31-.21,3.86-.2,3.26-.51,7.75-.88,12.71s-.74,9.46-1,12.71c-.16,1.55-.28,2.84-.38,3.85a6.81,6.81,0,0,1-.21,1.4,8.1,8.1,0,0,1,0-1.42c0-1,.12-2.3.21-3.85.2-3.26.51-7.76.88-12.72s.74-9.46,1-12.71c.15-1.55.27-2.84.37-3.85A7,7,0,0,1,1915.22,152.37Z" transform="translate(-1729.71 -49.68)"/><path class="cls-3" d="M1824.09,199.74c0,.09-1-.33-2.54-.67a12.6,12.6,0,0,0-6.19.3,12.39,12.39,0,0,0-5.21,3.34c-1.1,1.18-1.6,2.07-1.69,2s.08-.25.3-.66a10.52,10.52,0,0,1,1.11-1.61,11.82,11.82,0,0,1,5.33-3.59,11.69,11.69,0,0,1,6.43-.15,10.23,10.23,0,0,1,1.84.66C1823.89,199.58,1824.11,199.71,1824.09,199.74Z" transform="translate(-1729.71 -49.68)"/><path class="cls-3" d="M1827.75,150.91c.15,0,1.91,10.08,3.93,22.57s3.56,22.63,3.42,22.65-1.9-10.08-3.93-22.57S1827.61,150.93,1827.75,150.91Z" transform="translate(-1729.71 -49.68)"/><polygon class="cls-4" points="181.34 199.1 73.08 199.84 58.36 151.88 60.18 148.54 193.76 148.89 195.47 151.88 181.34 199.1"/><polygon class="cls-4" points="91.09 175.51 91.09 419.7 168.43 419.7 164.68 175.51 91.09 175.51"/><path class="cls-3" d="M1895,256.36a5.23,5.23,0,0,1,0-.57l-.07-1.67c0-1.49-.1-3.62-.18-6.31-.12-5.48-.3-13.27-.52-22.62l.22.22-34.61,0-39,0,.21-.21c0,8.14-.07,14.83-.09,19.53,0,2.3,0,4.12-.06,5.39,0,.6,0,1.06,0,1.41a.25.25,0,1,1-.06,0c0-.35,0-.81,0-1.41,0-1.27,0-3.09-.06-5.39,0-4.7,0-11.39-.09-19.53V225h.21l39,0,34.61,0h.22v.21c.14,9.36.26,17.14.34,22.62,0,2.7,0,4.83.06,6.32v1.66A3,3,0,0,1,1895,256.36Z" transform="translate(-1729.71 -49.68)"/><g class="cls-13"><polygon points="164.68 175.51 178.89 199.12 165.13 199.12 164.68 175.51"/></g><path class="cls-3" d="M1925,201.78c0,.14-30.46.26-68,.26s-68-.12-68-.26,30.45-.26,68-.26S1925,201.64,1925,201.78Z" transform="translate(-1729.71 -49.68)"/><path class="cls-3" d="M1881.32,199.64s0-.07,0-.22,0-.41-.08-.67c0-.64-.13-1.5-.22-2.58-.19-2.29-.46-5.52-.78-9.48-.65-8-1.59-19.07-2.75-31.27-.6-6.06-1.18-11.84-1.7-17.09l.45.09-4,7.22-.15.27-.2-.23-9.08-10.37-2.49-2.89c-.26-.32-.48-.57-.64-.78a1.32,1.32,0,0,1-.21-.27s.1.07.25.23l.69.73,2.59,2.82,9.21,10.25-.34,0c1.22-2.25,2.55-4.68,4-7.25l.37-.68.08.77c.57,5.24,1.16,11,1.74,17.09,1.16,12.21,2,23.27,2.6,31.29.28,4,.48,7.25.61,9.49,0,1.09.1,1.95.13,2.59l0,.67A.82.82,0,0,1,1881.32,199.64Z" transform="translate(-1729.71 -49.68)"/><path class="cls-3" d="M1891.26,133a3.69,3.69,0,0,1-.41.88c-.3.54-.74,1.33-1.29,2.29-1.11,1.92-2.68,4.56-4.43,7.46l-.9,1.47-.17.29-.24-.25c-2-2.21-3.77-4.18-5-5.62a13.68,13.68,0,0,1-1.86-2.41s.22.19.59.57l1.53,1.61,5.12,5.5-.41,0,.89-1.47c1.76-2.9,3.37-5.51,4.56-7.38.6-.94,1.09-1.69,1.44-2.21A3.39,3.39,0,0,1,1891.26,133Z" transform="translate(-1729.71 -49.68)"/><path class="cls-5" d="M1875.85,133.55s-7.74-6.12-8.89-5-4,4.21-3.17,8.72,1.82,5.17,1.82,5.17l10.59-4.7Z" transform="translate(-1729.71 -49.68)"/><path class="cls-5" d="M1876.57,133.68l.65,4.09s7.19,5.18,9,3.74,1.82-6.13,1.72-8.14-.27-6.87-3.15-6.1S1876.57,133.68,1876.57,133.68Z" transform="translate(-1729.71 -49.68)"/><path class="cls-5" d="M1880.08,135.51a3.88,3.88,0,1,1-3.88-3.87A3.88,3.88,0,0,1,1880.08,135.51Z" transform="translate(-1729.71 -49.68)"/><path class="cls-3" d="M1880.08,135.51s0-.34-.22-.92a3.88,3.88,0,0,0-1.43-2,3.65,3.65,0,1,0-3.47,6.35,3.74,3.74,0,0,0,3.47-.48,3.89,3.89,0,0,0,1.43-2c.17-.57.17-.92.22-.92a2,2,0,0,1,0,1,3.83,3.83,0,0,1-1.39,2.26,4.06,4.06,0,0,1-3.86.64,4.1,4.1,0,0,1,0-7.73,4,4,0,0,1,3.86.64,3.79,3.79,0,0,1,1.39,2.25A2,2,0,0,1,1880.08,135.51Z" transform="translate(-1729.71 -49.68)"/><path class="cls-14" d="M1923.87,229.46" transform="translate(-1729.71 -49.68)"/><path class="cls-10" d="M1994.81,327.09a1.6,1.6,0,0,1,2.2,0c1,1,3,9,3,9a17.7,17.7,0,0,1,1.27,3.12c.33,1.36-3.72,9.55-3.72,9.55l-9.72-7.82s-1.78.13-2.2-1a27,27,0,0,1-.76-4.23l3-3.13s-2-.59-2.37-1.43a3.29,3.29,0,0,1-.08-2Z" transform="translate(-1729.71 -49.68)"/><path class="cls-5" d="M2001.35,323.14c-1.58.8-5,2.16-5.34,6.57s.65,11.29-.9,13.48-6.57,2.69-8.29-.86-1.22-12.83-1.59-14.5a5.8,5.8,0,0,0-3.06-3.63c-1.35-.74,9.74-7.72,9.74-7.72Z" transform="translate(-1729.71 -49.68)"/><path class="cls-10" d="M1991.52,365.15s-4.74-13.61-4.9-15.47-.46-5.15.83-7.94a18.29,18.29,0,0,0,1.54-5.15c.08-.34-.67-5.75,0-7.7s1.68-1.94,2.53-1.69,1.6,1.53,1.6,3.39A70,70,0,0,0,1994,339c.42,2.7,3.55,9.71,3.55,9.71s-.09,3.05,0,4.31,3.72,9,3.72,9l-6.85,5.07Z" transform="translate(-1729.71 -49.68)"/><path class="cls-15" d="M1921.82,412.83a89.28,89.28,0,0,1,46.34,1.26c3.09.92,4.41-3.9,1.33-4.82a94.6,94.6,0,0,0-49-1.26c-3.13.76-1.8,5.58,1.33,4.82Z" transform="translate(-1729.71 -49.68)"/><path class="cls-3" d="M1939.87,331.19l.64-.17a12.09,12.09,0,0,1,9.88-5.89,15.71,15.71,0,0,1,11,4.09c2.08,1.84,3.72,4.13,5.81,6s4.88,3.21,7.6,2.64c.33,1-1.56,1.61-1.45,2.67a1.25,1.25,0,0,0,1.08.94,13.86,13.86,0,0,0,2.23,0,1.81,1.81,0,0,1,1.78,1.09,2.21,2.21,0,0,1-.09,1.08,19.27,19.27,0,0,1-4.42,8.64,10.11,10.11,0,0,1-8.85,3.23c-2.56-.48-4.72-2.17-6.75-3.8l-11.62-9.31a25.83,25.83,0,0,1-5-4.73A8.75,8.75,0,0,1,1939.87,331.19Z" transform="translate(-1729.71 -49.68)"/><path class="cls-3" d="M1942.29,331.83a12.82,12.82,0,0,0-5.41-2.68,7.59,7.59,0,0,0-5.82,1.11c-1.53,1.11-2.47,2.83-3.55,4.38s-2.51,3.07-4.38,3.34a1.64,1.64,0,0,0-.93.3c-.43.4-.12,1.19.41,1.43a2.7,2.7,0,0,0,1.73,0,6.11,6.11,0,0,1-3.64,2.06,2.66,2.66,0,0,0,3.27,1.88,27.15,27.15,0,0,0-1.07,6.68,9.2,9.2,0,0,0,2.18,6.25c1.69,1.83,4.44,2.85,5.18,5.23" transform="translate(-1729.71 -49.68)"/><path class="cls-10" d="M1958.6,411.53l-30.24-.39,3.37-25.74s-2.06-.44-2.2-11.64-.65-30.24-.65-30.24h0a38.92,38.92,0,0,1,39.11,4.92l1.66,1.28Z" transform="translate(-1729.71 -49.68)"/><path class="cls-10" d="M1966.14,363.49c.19-.08,7.7-2.27,7.45,5.39s-7.88,5.83-7.88,5.61S1966.14,363.49,1966.14,363.49Z" transform="translate(-1729.71 -49.68)"/><path class="cls-10" d="M1930.18,361.89c-.19-.08-7-1.92-6.78,5.74s7.89,5.83,7.89,5.61S1930.18,361.89,1930.18,361.89Z" transform="translate(-1729.71 -49.68)"/><path class="cls-3" d="M1968.63,362.64c-1.15,6.42-.92,9.79-2,14.07-1.68,6.78-5,12-11.15,15.37s-14.38,3.33-19.63-1.28c-3.64-3.2-6.22-6.82-6.76-11.64s-2-13.86-2-18.71c-.07-8.74.23-16.58.23-16.58l25-4.52,14.22,8.45Z" transform="translate(-1729.71 -49.68)"/><path class="cls-3" d="M1942.86,396c0,.18,1.93.66,4.38.39s4.26-1.17,4.19-1.33-1.92.38-4.27.63S1942.89,395.75,1942.86,396Z" transform="translate(-1729.71 -49.68)"/><path class="cls-3" d="M1967.42,373.55c.73-6.58,1.21-14.1,2.23-21,.39-2.6,1.32-6.35,1.08-9s-1-1.83-2.1-4.2c-1.46-3-7-5-10.25-5.62s-3.65-3.46-6.14-1.27a8.11,8.11,0,0,0-14.79,3.42,5.63,5.63,0,0,0-9.29,5.64,5.51,5.51,0,0,0-3.71,8.43c1.15,1.78,3.24,2.76,4.52,4.46a6.39,6.39,0,0,1,.38,6.91" transform="translate(-1729.71 -49.68)"/><path class="cls-7" d="M1935.24,372.18c-.17,0-.52,3.14.86,6.73s3.71,5.76,3.81,5.62-1.87-2.42-3.15-5.87S1935.46,372.17,1935.24,372.18Z" transform="translate(-1729.71 -49.68)"/><path class="cls-7" d="M1931.88,366.59c-.15-.08-1.12,2.66-.49,6.07s2.48,5.63,2.6,5.5-1.34-2.39-1.91-5.63S1932.1,366.63,1931.88,366.59Z" transform="translate(-1729.71 -49.68)"/><path class="cls-3" d="M1963.34,340.12a17.12,17.12,0,0,0-7.79-7c-3.3-1.31-7.34-1-10,1.26" transform="translate(-1729.71 -49.68)"/><path class="cls-7" d="M1962.71,357.07a6.39,6.39,0,0,1,.24-2.26,28.15,28.15,0,0,0,.58-5.31,11.76,11.76,0,0,0-1.14-5.07c-.6-1.21-1.21-1.83-1.11-1.93s.85.39,1.65,1.62a10.16,10.16,0,0,1,1.49,5.37,18.46,18.46,0,0,1-.86,5.46A5.71,5.71,0,0,1,1962.71,357.07Z" transform="translate(-1729.71 -49.68)"/><path class="cls-7" d="M1957.54,359.6c-.22-.12.4-1.63,1-3.54s1-3.49,1.23-3.46.25,1.74-.38,3.73S1957.75,359.72,1957.54,359.6Z" transform="translate(-1729.71 -49.68)"/><path class="cls-7" d="M1933.56,357.64a6.43,6.43,0,0,1-1.72-2.74,13.5,13.5,0,0,1,2.93-14.66,6.5,6.5,0,0,1,2.64-1.87c.08.12-.93.83-2.18,2.3a14.33,14.33,0,0,0-2.8,14C1933,356.52,1933.68,357.56,1933.56,357.64Z" transform="translate(-1729.71 -49.68)"/><path class="cls-7" d="M1960.86,329.15a11.41,11.41,0,0,1-2.47-1,14.49,14.49,0,0,0-6-1.48,7.32,7.32,0,0,0-5.46,2.3,17,17,0,0,0-1.4,2.18c-.09,0-.13-1.15.91-2.57a6.78,6.78,0,0,1,2.33-2,8.24,8.24,0,0,1,3.61-.85,12.78,12.78,0,0,1,6.32,1.81C1960.13,328.39,1960.92,329.05,1960.86,329.15Z" transform="translate(-1729.71 -49.68)"/><path class="cls-7" d="M1926.7,336.24c-.09,0,.09-.89.89-2a8.24,8.24,0,0,1,9.74-2.83c1.29.53,1.9,1.15,1.83,1.23s-.79-.3-2-.63a9.12,9.12,0,0,0-4.91,0,9.22,9.22,0,0,0-4.14,2.62C1927.21,335.56,1926.83,336.3,1926.7,336.24Z" transform="translate(-1729.71 -49.68)"/><path class="cls-7" d="M1934.94,364.39c0-.11,1.24-.44,3.25-1.35a25.72,25.72,0,0,0,7.39-5l1.45-1.4-.79,1.86a17.13,17.13,0,0,0-1.08,3.64c-.13.63-.23,1.43,0,1.53s.86-.15,1.43-.55a23.24,23.24,0,0,0,5.14-4.54l1.33-1.6-.61,2c-.61,2-1.17,3.81-1.69,5.48l-.57-.35c3.5-3.31,4.72-6.27,4.89-6.16a6.16,6.16,0,0,1-.86,2,20.69,20.69,0,0,1-3.55,4.68l-.94.93.36-1.29c.48-1.67,1-3.53,1.56-5.52l.72.39a22.93,22.93,0,0,1-5.3,4.76,7.6,7.6,0,0,1-1,.57,1.45,1.45,0,0,1-1.45-.06,1.48,1.48,0,0,1-.49-1.32,10.22,10.22,0,0,1,.15-1.07,17.14,17.14,0,0,1,1.19-3.81l.66.46a23.94,23.94,0,0,1-7.77,4.86A10.67,10.67,0,0,1,1934.94,364.39Z" transform="translate(-1729.71 -49.68)"/><path class="cls-3" d="M1949.56,334.86a4,4,0,0,0-2.42-1.87,6.94,6.94,0,0,0-3.11-.07,11.12,11.12,0,0,0-6.51,3.77c-.38.45-.71,1.14-.31,1.57a1.31,1.31,0,0,0,.85.29,47.94,47.94,0,0,0,11.29-.4" transform="translate(-1729.71 -49.68)"/><path class="cls-5" d="M1964.2,407.67a234,234,0,0,0-39.06-.88c-1.24,0-31.63,6.54-33.25,8.52s14.78,82.19,14.78,82.19l85.32,1c.31-10.47-1.1-87.28-1.1-87.28C1990,410.92,1978.9,409.3,1964.2,407.67Z" transform="translate(-1729.71 -49.68)"/><polygon class="cls-5" points="193.82 357.37 199.64 348.64 231.62 350.09 238.31 358.49 219.01 362.36 193.82 357.37"/><path class="cls-7" d="M1968,408.17a8.84,8.84,0,0,1-1.78,0l-4.82-.16c-4.07-.13-9.7-.2-15.92-.26s-11.86-.21-15.93-.47c-2-.13-3.69-.26-4.82-.38a8.37,8.37,0,0,1-1.76-.26,8.84,8.84,0,0,1,1.78,0l4.82.16c4.07.13,9.7.2,15.92.26s11.86.21,15.93.47c2,.12,3.69.25,4.82.38A8.37,8.37,0,0,1,1968,408.17Z" transform="translate(-1729.71 -49.68)"/><path class="cls-5" d="M1955.13,409.77l9.12.41s19.94-6.93,21-6.44,4.49,3.89,4.49,3.89l5.72-10.21-7-32.11s5.8-4.2,10.45-4.2,6.26,2,6.26,2,9.19,28.68,9.43,35.61-.61,13.5-3.16,19.1-16.85,21.1-16.85,21.1l-6.18,31.52-21-36.33Z" transform="translate(-1729.71 -49.68)"/><path class="cls-7" d="M1994.23,440.84a8.07,8.07,0,0,1,.15-1.41c.14-.9.3-2.21.42-3.83a53.52,53.52,0,0,0,.14-5.71,56.44,56.44,0,0,0-.69-7,57.67,57.67,0,0,0-1.61-6.8,52.87,52.87,0,0,0-2-5.35c-.65-1.49-1.22-2.68-1.65-3.49a7,7,0,0,1-.6-1.29,9.19,9.19,0,0,1,.78,1.19,35.62,35.62,0,0,1,1.8,3.44,45.84,45.84,0,0,1,2.11,5.36,52.19,52.19,0,0,1,1.68,6.86,53.28,53.28,0,0,1,.65,7,45.39,45.39,0,0,1-.25,5.76c-.06.82-.19,1.55-.29,2.19s-.2,1.2-.3,1.64A6.63,6.63,0,0,1,1994.23,440.84Z" transform="translate(-1729.71 -49.68)"/><path class="cls-7" d="M2000.2,419.13c-.09,0-.25-.9-.72-2.31a19,19,0,0,0-6.72-9.21c-1.19-.88-2-1.32-2-1.39a7,7,0,0,1,2.19,1.09,16.62,16.62,0,0,1,6.86,9.4A7.39,7.39,0,0,1,2000.2,419.13Z" transform="translate(-1729.71 -49.68)"/><path class="cls-7" d="M2002.39,416a12.39,12.39,0,0,0-.52-2.12,9.26,9.26,0,0,0-3.39-3.88c-1.71-1.15-3.45-1.91-4.65-2.6a6.61,6.61,0,0,1-1.84-1.27,18.17,18.17,0,0,1,2,.94,36.47,36.47,0,0,1,4.78,2.5,8.69,8.69,0,0,1,3.43,4.18A3.52,3.52,0,0,1,2002.39,416Z" transform="translate(-1729.71 -49.68)"/><path class="cls-7" d="M2012.74,396.15c0,.08-.94-.49-2.52-1.07a14.79,14.79,0,0,0-12.64,1.15c-1.45.84-2.23,1.57-2.29,1.5s.15-.23.49-.56a11.62,11.62,0,0,1,1.61-1.26,13.87,13.87,0,0,1,13-1.17,11,11,0,0,1,1.81.95C2012.56,396,2012.76,396.12,2012.74,396.15Z" transform="translate(-1729.71 -49.68)"/><circle class="cls-5" cx="261.07" cy="256.54" r="19.88"/><path class="cls-5" d="M1891.89,415.31s-4.93,9.09-6.12,18.62-.21,63.63-.21,63.63l20.67.18-11.92-81.11" transform="translate(-1729.71 -49.68)"/><path class="cls-4" d="M1995.77,298.79a8.88,8.88,0,0,1,2,6.25,10.58,10.58,0,0,1-1.08,4.95,7.37,7.37,0,0,1-3,3.13,9.37,9.37,0,0,1-4.54,1.07,10.44,10.44,0,0,1-2.59-.31,6.66,6.66,0,0,1-2.11-.86l1.45-2.89a5.5,5.5,0,0,0,3.18.85,4.59,4.59,0,0,0,3.42-1.27,5.31,5.31,0,0,0,1.36-3.68,5.69,5.69,0,0,1-4.22,1.53,6.73,6.73,0,0,1-3-.65,5.16,5.16,0,0,1-2.11-1.86,5,5,0,0,1-.78-2.78,5.26,5.26,0,0,1,.85-3,5.54,5.54,0,0,1,2.32-2,7.56,7.56,0,0,1,3.26-.69A7.22,7.22,0,0,1,1995.77,298.79Zm-3.19,5.12a2.49,2.49,0,0,0,0-3.65,3.16,3.16,0,0,0-2.18-.71,3.05,3.05,0,0,0-2,.68,2.56,2.56,0,0,0,0,3.7,3.46,3.46,0,0,0,4.2,0Z" transform="translate(-1729.71 -49.68)"/><path class="cls-7" d="M1896.53,430.93a3.1,3.1,0,0,1,.12.67c.07.5.15,1.14.25,1.94.2,1.74.49,4.16.84,7.12.73,6,1.83,14.3,3.27,23.43s3,17.34,4.14,23.29c.58,2.92,1,5.31,1.4,7,.15.79.27,1.42.37,1.91a3.79,3.79,0,0,1,.09.68,2.94,2.94,0,0,1-.2-.65l-.46-1.9c-.4-1.65-.93-4-1.56-7-1.26-5.93-2.85-14.15-4.3-23.28s-2.48-17.44-3.11-23.47c-.32-3-.55-5.45-.69-7.14,0-.8-.1-1.45-.14-1.95A4.36,4.36,0,0,1,1896.53,430.93Z" transform="translate(-1729.71 -49.68)"/><path class="cls-10" d="M1775.12,339a1.6,1.6,0,0,0-2.14-.49c-1.23.8-4.88,8.11-4.88,8.11a18,18,0,0,0-1.93,2.77c-.63,1.24,1.5,10.14,1.5,10.14l11.22-5.48s1.7.53,2.35-.45a25.93,25.93,0,0,0,1.68-3.95l-2.19-3.7s2-.15,2.63-.88a3.27,3.27,0,0,0,.53-2Z" transform="translate(-1729.71 -49.68)"/><path class="cls-5" d="M1769.62,333.68c1.36,1.13,4.37,3.21,3.75,7.59s-3.14,10.86-2.12,13.35,5.81,4.08,8.27,1,4-12.24,4.78-13.79a5.81,5.81,0,0,1,3.79-2.86c1.47-.42-7.79-9.68-7.79-9.68Z" transform="translate(-1729.71 -49.68)"/><path class="cls-10" d="M1769.88,376.82s7.64-12.21,8.22-14,1.58-4.92,1-7.93a18.11,18.11,0,0,1-.36-5.37c0-.34,1.92-5.45,1.7-7.49s-1.2-2.27-2.08-2.21-1.91,1.12-2.32,2.94a71,71,0,0,1-2.7,8.05c-1,2.54-5.62,8.69-5.62,8.69s-.59,3-1,4.2-5.62,7.91-5.62,7.91l5.55,6.46Z" transform="translate(-1729.71 -49.68)"/><circle class="cls-5" cx="1783.68" cy="319.53" r="19.88" transform="translate(-1649.69 887.24) rotate(-30.08)"/><path class="cls-8" d="M1785.87,429l-12.29-4.18-18.08-13.34,21.9-34.84L1760.68,364s-22.18,31.47-26.77,40.84-6.19,14.15-.8,20.54,47.65,37.48,47.65,37.48Z" transform="translate(-1729.71 -49.68)"/><path class="cls-8" d="M1852.23,497.56l4.13-28.58c0,.08,4.09-31.66,4.06-31.74a131,131,0,0,0-15.82-5.9l-9.34-5.29a15.5,15.5,0,0,1-3.29-8.88,59.11,59.11,0,0,1-.18-6.14l-27,1.54s-3.77,10.87-10.17,14.2-16.27,3.22-16.27,3.22-2,23.2-2,27.93l8.23,39.64Z" transform="translate(-1729.71 -49.68)"/><g class="cls-13"><path d="M1844.76,409.09,1785.87,429c1.75,16.35,12.16,30.09,26.33,34.71,18.47,6,40.85-4.25,49.65-25.26a22.71,22.71,0,0,1-6.92-2.25,22.33,22.33,0,0,1-9.08-8.52C1841.08,419.35,1844.25,410.44,1844.76,409.09Z" transform="translate(-1729.71 -49.68)"/></g><path class="cls-3" d="M1822.65,356.87c-3.44.35-9.13.93-14.3,4.92-2.71,2.09-4.72,4.69-8.46,13-6.17,13.73-9.26,20.6-8.69,26.77,1.06,11.67,9.69,16.11,7.43,20.78-1.35,2.78-6.41,5.29-23.88,2.88,3.72,22,21.77,38.37,42.78,39.67,18.24,1.12,35.84-9.33,44.32-26.44-4.19-1.32-11.14-4.29-15.22-10.84a11.59,11.59,0,0,1-1.87-4.25c-1.15-6.15,4.64-9.89,7.49-16.17,4.87-10.73,1.93-21.86.51-27.24-1.8-6.83-3.92-14.77-11.3-19.63C1834.44,355.72,1826.38,356.49,1822.65,356.87Z" transform="translate(-1729.71 -49.68)"/><path class="cls-3" d="M1755.72,411.69a20.72,20.72,0,0,0-6,1.74,20.05,20.05,0,0,0-4.92,3.92,4.57,4.57,0,0,1,1.06-1.57,12.6,12.6,0,0,1,8-4.14A4.79,4.79,0,0,1,1755.72,411.69Z" transform="translate(-1729.71 -49.68)"/><path class="cls-3" d="M1782,433c.07,0-.62,1.13-1.57,2.95a41.84,41.84,0,0,0-3,7.42,42.38,42.38,0,0,0-1.47,7.87c-.18,2.05-.17,3.33-.26,3.33a3,3,0,0,1-.11-.9c0-.58,0-1.42,0-2.45a35.12,35.12,0,0,1,1.34-8,34,34,0,0,1,3.17-7.46,23.92,23.92,0,0,1,1.32-2.07C1781.72,433.27,1781.92,433,1782,433Z" transform="translate(-1729.71 -49.68)"/><path class="cls-8" d="M1860.42,437.24s7.44,5.28,9,16.56,4.78,43.76,4.78,43.76h-18L1852.76,484Z" transform="translate(-1729.71 -49.68)"/><path class="cls-3" d="M1859.49,450.35a1.74,1.74,0,0,1,0,.48c0,.37-.08.82-.14,1.37-.12,1.19-.34,2.9-.63,5-.57,4.23-1.49,10.07-2.55,16.49s-2,12.18-2.7,16.47c-.33,2.05-.6,3.73-.8,5-.09.53-.17,1-.23,1.35a2.71,2.71,0,0,1-.11.47,1.36,1.36,0,0,1,0-.48c0-.38.08-.83.13-1.37.13-1.19.34-2.91.63-5,.58-4.24,1.49-10.07,2.56-16.5s2-12.17,2.7-16.46c.32-2.05.59-3.74.79-5,.09-.54.17-1,.23-1.36A1.46,1.46,0,0,1,1859.49,450.35Z" transform="translate(-1729.71 -49.68)"/><path class="cls-4" d="M1788.72,319a4.61,4.61,0,0,1,1.19,3.22,5.09,5.09,0,0,1-.78,2.73,5.44,5.44,0,0,1-2.37,2,9.06,9.06,0,0,1-3.89.75,13.53,13.53,0,0,1-3.53-.47,9.23,9.23,0,0,1-2.95-1.35l1.53-3a7.37,7.37,0,0,0,2.24,1.13,8.57,8.57,0,0,0,2.61.4,4.12,4.12,0,0,0,2.33-.57,1.82,1.82,0,0,0,.85-1.61c0-1.39-1.06-2.09-3.18-2.09H1781v-2.6l3.49-3.95h-7.23v-3.16h11.89v2.55l-3.83,4.37A5.77,5.77,0,0,1,1788.72,319Z" transform="translate(-1729.71 -49.68)"/></g></svg>